999
FreeCAD DXF exporter v0.16-6706 (Git)
0
SECTION
2
HEADER
9
$ACADVER
1
AC1009
0
ENDSEC
0
SECTION
2
BLOCKS
0
BLOCK
5
2711
100
AcDbEntity
8
0
100
AcDbBlockBegin
2
View0121
70
0
10
0
20
0
3
View0121
1

0
LINE
8
0
6
BYBLOCK
62
0
5
2712
100
AcDbEntity
100
AcDbLine
10
0
20
0
30
0
11
112
21
0
31
0
0
LINE
8
0
6
BYBLOCK
62
0
5
2713
100
AcDbEntity
100
AcDbLine
10
0
20
110
30
0
11
0
21
0
31
0
0
ARC
8
0
6
BYBLOCK
62
0
5
2714
100
AcDbEntity
100
AcDbCircle
10
112
20
6
30
0
40
6
100
AcDbArc
50
-90
51
-6.12363e-012
0
LINE
8
0
6
BYBLOCK
62
0
5
2715
100
AcDbEntity
100
AcDbLine
10
16
20
110
30
0
11
-3.69482e-013
21
110
31
0
0
LINE
8
0
6
BYBLOCK
62
0
5
2716
100
AcDbEntity
100
AcDbLine
10
118
20
6
30
0
11
118
21
104
31
0
0
LINE
8
0
6
BYBLOCK
62
0
5
2717
100
AcDbEntity
100
AcDbLine
10
16
20
84
30
0
11
16
21
110
31
0
0
ARC
8
0
6
BYBLOCK
62
0
5
2718
100
AcDbEntity
100
AcDbCircle
10
112
20
104
30
0
40
6
100
AcDbArc
50
-5.97096e-012
51
90
0
LINE
8
0
6
BYBLOCK
62
0
5
2719
100
AcDbEntity
100
AcDbLine
10
29
20
84
30
0
11
16
21
84
31
0
0
LINE
8
0
6
BYBLOCK
62
0
5
271a
100
AcDbEntity
100
AcDbLine
10
112
20
110
30
0
11
29
21
110
31
0
0
LINE
8
0
6
BYBLOCK
62
0
5
271b
100
AcDbEntity
100
AcDbLine
10
29
20
84
30
0
11
29
21
77
31
0
0
LINE
8
0
6
BYBLOCK
62
0
5
271c
100
AcDbEntity
100
AcDbLine
10
29
20
110
30
0
11
29
21
91
31
0
0
LINE
8
0
6
BYBLOCK
62
0
5
271d
100
AcDbEntity
100
AcDbLine
10
29
20
77
30
0
11
43
21
77
31
0
0
LINE
8
0
6
BYBLOCK
62
0
5
271e
100
AcDbEntity
100
AcDbLine
10
43
20
91
30
0
11
29
21
91
31
0
0
LINE
8
0
6
BYBLOCK
62
0
5
271f
100
AcDbEntity
100
AcDbLine
10
43
20
77
30
0
11
43
21
91
31
0
0
LINE
8
0
6
BYBLOCK
62
0
5
2720
100
AcDbEntity
100
AcDbLine
10
24
20
41
30
0
11
10
21
41
31
0
0
LINE
8
0
6
BYBLOCK
62
0
5
2721
100
AcDbEntity
100
AcDbLine
10
24
20
27
30
0
11
24
21
41
31
0
0
LINE
8
0
6
BYBLOCK
62
0
5
2722
100
AcDbEntity
100
AcDbLine
10
10
20
41
30
0
11
10
21
27
31
0
0
LINE
8
0
6
BYBLOCK
62
0
5
2723
100
AcDbEntity
100
AcDbLine
10
10
20
27
30
0
11
24
21
27
31
0
0
LINE
8
0
6
BYBLOCK
62
0
5
2724
100
AcDbEntity
100
AcDbLine
10
43
20
33
30
0
11
43
21
19
31
0
0
LINE
8
0
6
BYBLOCK
62
0
5
2725
100
AcDbEntity
100
AcDbLine
10
43
20
19
30
0
11
29
21
19
31
0
0
LINE
8
0
6
BYBLOCK
62
0
5
2726
100
AcDbEntity
100
AcDbLine
10
29
20
19
30
0
11
29
21
33
31
0
0
LINE
8
0
6
BYBLOCK
62
0
5
2727
100
AcDbEntity
100
AcDbLine
10
29
20
33
30
0
11
43
21
33
31
0
0
LINE
8
0
6
BYBLOCK
62
0
5
2728
100
AcDbEntity
100
AcDbLine
10
67
20
32
30
0
11
81
21
32
31
0
0
LINE
8
0
6
BYBLOCK
62
0
5
2729
100
AcDbEntity
100
AcDbLine
10
67
20
18
30
0
11
67
21
32
31
0
0
LINE
8
0
6
BYBLOCK
62
0
5
272a
100
AcDbEntity
100
AcDbLine
10
81
20
32
30
0
11
81
21
18
31
0
0
LINE
8
0
6
BYBLOCK
62
0
5
272b
100
AcDbEntity
100
AcDbLine
10
81
20
18
30
0
11
67
21
18
31
0
0
LINE
8
0
6
BYBLOCK
62
0
5
272c
100
AcDbEntity
100
AcDbLine
10
48
20
7
30
0
11
48
21
21
31
0
0
LINE
8
0
6
BYBLOCK
62
0
5
272d
100
AcDbEntity
100
AcDbLine
10
62
20
7
30
0
11
48
21
7
31
0
0
LINE
8
0
6
BYBLOCK
62
0
5
272e
100
AcDbEntity
100
AcDbLine
10
48
20
21
30
0
11
62
21
21
31
0
0
LINE
8
0
6
BYBLOCK
62
0
5
272f
100
AcDbEntity
100
AcDbLine
10
62
20
21
30
0
11
62
21
7
31
0
0
CIRCLE
8
0
6
BYBLOCK
62
0
5
2730
100
AcDbEntity
100
AcDbCircle
10
11
20
105
30
0
40
1.5
0
LINE
8
0
6
BYBLOCK
62
0
5
2731
100
AcDbEntity
100
AcDbLine
10
24
20
60.5
30
0
11
10
21
60.5
31
0
0
LINE
8
0
6
BYBLOCK
62
0
5
2732
100
AcDbEntity
100
AcDbLine
10
24
20
46.5
30
0
11
24
21
60.5
31
0
0
LINE
8
0
6
BYBLOCK
62
0
5
2733
100
AcDbEntity
100
AcDbLine
10
10
20
60.5
30
0
11
10
21
46.5
31
0
0
LINE
8
0
6
BYBLOCK
62
0
5
2734
100
AcDbEntity
100
AcDbLine
10
10
20
46.5
30
0
11
24
21
46.5
31
0
0
LINE
8
0
6
BYBLOCK
62
0
5
2735
100
AcDbEntity
100
AcDbLine
10
10
20
66
30
0
11
24
21
66
31
0
0
LINE
8
0
6
BYBLOCK
62
0
5
2736
100
AcDbEntity
100
AcDbLine
10
10
20
80
30
0
11
10
21
66
31
0
0
LINE
8
0
6
BYBLOCK
62
0
5
2737
100
AcDbEntity
100
AcDbLine
10
24
20
66
30
0
11
24
21
80
31
0
0
LINE
8
0
6
BYBLOCK
62
0
5
2738
100
AcDbEntity
100
AcDbLine
10
24
20
80
30
0
11
10
21
80
31
0
0
LINE
8
0
6
BYBLOCK
62
0
5
2739
100
AcDbEntity
100
AcDbLine
10
43
20
57.5
30
0
11
43
21
71.5
31
0
0
LINE
8
0
6
BYBLOCK
62
0
5
273a
100
AcDbEntity
100
AcDbLine
10
29
20
57.5
30
0
11
43
21
57.5
31
0
0
LINE
8
0
6
BYBLOCK
62
0
5
273b
100
AcDbEntity
100
AcDbLine
10
43
20
71.5
30
0
11
29
21
71.5
31
0
0
LINE
8
0
6
BYBLOCK
62
0
5
273c
100
AcDbEntity
100
AcDbLine
10
29
20
71.5
30
0
11
29
21
57.5
31
0
0
CIRCLE
8
0
6
BYBLOCK
62
0
5
273d
100
AcDbEntity
100
AcDbCircle
10
41
20
105
30
0
40
1.5
0
LINE
8
0
6
BYBLOCK
62
0
5
273e
100
AcDbEntity
100
AcDbLine
10
43
20
38
30
0
11
43
21
52
31
0
0
LINE
8
0
6
BYBLOCK
62
0
5
273f
100
AcDbEntity
100
AcDbLine
10
29
20
38
30
0
11
43
21
38
31
0
0
LINE
8
0
6
BYBLOCK
62
0
5
2740
100
AcDbEntity
100
AcDbLine
10
43
20
52
30
0
11
29
21
52
31
0
0
LINE
8
0
6
BYBLOCK
62
0
5
2741
100
AcDbEntity
100
AcDbLine
10
29
20
52
30
0
11
29
21
38
31
0
0
CIRCLE
8
0
6
BYBLOCK
62
0
5
2742
100
AcDbEntity
100
AcDbCircle
10
11
20
5
30
0
40
1.5
0
CIRCLE
8
0
6
BYBLOCK
62
0
5
2743
100
AcDbEntity
100
AcDbCircle
10
88.5
20
5
30
0
40
1.5
0
LINE
8
0
6
BYBLOCK
62
0
5
2744
100
AcDbEntity
100
AcDbLine
10
86
20
44.5
30
0
11
86
21
58.5
31
0
0
LINE
8
0
6
BYBLOCK
62
0
5
2745
100
AcDbEntity
100
AcDbLine
10
100
20
44.5
30
0
11
86
21
44.5
31
0
0
LINE
8
0
6
BYBLOCK
62
0
5
2746
100
AcDbEntity
100
AcDbLine
10
86
20
58.5
30
0
11
100
21
58.5
31
0
0
LINE
8
0
6
BYBLOCK
62
0
5
2747
100
AcDbEntity
100
AcDbLine
10
100
20
58.5
30
0
11
100
21
44.5
31
0
0
CIRCLE
8
0
6
BYBLOCK
62
0
5
2748
100
AcDbEntity
100
AcDbCircle
10
93.4419
20
37.5415
30
0
40
2
0
LINE
8
0
6
BYBLOCK
62
0
5
2749
100
AcDbEntity
100
AcDbLine
10
86
20
78
30
0
11
100
21
78
31
0
0
LINE
8
0
6
BYBLOCK
62
0
5
274a
100
AcDbEntity
100
AcDbLine
10
86
20
64
30
0
11
86
21
78
31
0
0
LINE
8
0
6
BYBLOCK
62
0
5
274b
100
AcDbEntity
100
AcDbLine
10
100
20
78
30
0
11
100
21
64
31
0
0
LINE
8
0
6
BYBLOCK
62
0
5
274c
100
AcDbEntity
100
AcDbLine
10
100
20
64
30
0
11
86
21
64
31
0
0
LINE
8
0
6
BYBLOCK
62
0
5
274d
100
AcDbEntity
100
AcDbLine
10
81
20
56.5
30
0
11
81
21
70.5
31
0
0
LINE
8
0
6
BYBLOCK
62
0
5
274e
100
AcDbEntity
100
AcDbLine
10
67
20
56.5
30
0
11
81
21
56.5
31
0
0
LINE
8
0
6
BYBLOCK
62
0
5
274f
100
AcDbEntity
100
AcDbLine
10
81
20
70.5
30
0
11
67
21
70.5
31
0
0
LINE
8
0
6
BYBLOCK
62
0
5
2750
100
AcDbEntity
100
AcDbLine
10
67
20
70.5
30
0
11
67
21
56.5
31
0
0
LINE
8
0
6
BYBLOCK
62
0
5
2751
100
AcDbEntity
100
AcDbLine
10
62
20
45
30
0
11
62
21
59
31
0
0
LINE
8
0
6
BYBLOCK
62
0
5
2752
100
AcDbEntity
100
AcDbLine
10
48
20
45
30
0
11
62
21
45
31
0
0
LINE
8
0
6
BYBLOCK
62
0
5
2753
100
AcDbEntity
100
AcDbLine
10
62
20
59
30
0
11
48
21
59
31
0
0
LINE
8
0
6
BYBLOCK
62
0
5
2754
100
AcDbEntity
100
AcDbLine
10
48
20
59
30
0
11
48
21
45
31
0
0
LINE
8
0
6
BYBLOCK
62
0
5
2755
100
AcDbEntity
100
AcDbLine
10
62
20
26
30
0
11
48
21
26
31
0
0
LINE
8
0
6
BYBLOCK
62
0
5
2756
100
AcDbEntity
100
AcDbLine
10
62
20
40
30
0
11
62
21
26
31
0
0
LINE
8
0
6
BYBLOCK
62
0
5
2757
100
AcDbEntity
100
AcDbLine
10
48
20
26
30
0
11
48
21
40
31
0
0
LINE
8
0
6
BYBLOCK
62
0
5
2758
100
AcDbEntity
100
AcDbLine
10
48
20
40
30
0
11
62
21
40
31
0
0
LINE
8
0
6
BYBLOCK
62
0
5
2759
100
AcDbEntity
100
AcDbLine
10
81
20
51
30
0
11
67
21
51
31
0
0
LINE
8
0
6
BYBLOCK
62
0
5
275a
100
AcDbEntity
100
AcDbLine
10
81
20
37
30
0
11
81
21
51
31
0
0
LINE
8
0
6
BYBLOCK
62
0
5
275b
100
AcDbEntity
100
AcDbLine
10
67
20
51
30
0
11
67
21
37
31
0
0
LINE
8
0
6
BYBLOCK
62
0
5
275c
100
AcDbEntity
100
AcDbLine
10
67
20
37
30
0
11
81
21
37
31
0
0
LINE
8
0
6
BYBLOCK
62
0
5
275d
100
AcDbEntity
100
AcDbLine
10
67
20
84
30
0
11
62
21
84
31
0
0
LINE
8
0
6
BYBLOCK
62
0
5
275e
100
AcDbEntity
100
AcDbLine
10
67
20
84
30
0
11
67
21
76
31
0
0
LINE
8
0
6
BYBLOCK
62
0
5
275f
100
AcDbEntity
100
AcDbLine
10
48
20
84
30
0
11
62
21
84
31
0
0
LINE
8
0
6
BYBLOCK
62
0
5
2760
100
AcDbEntity
100
AcDbLine
10
67
20
76
30
0
11
81
21
76
31
0
0
LINE
8
0
6
BYBLOCK
62
0
5
2761
100
AcDbEntity
100
AcDbLine
10
48
20
98
30
0
11
48
21
84
31
0
0
LINE
8
0
6
BYBLOCK
62
0
5
2762
100
AcDbEntity
100
AcDbLine
10
81
20
76
30
0
11
81
21
84
31
0
0
LINE
8
0
6
BYBLOCK
62
0
5
2763
100
AcDbEntity
100
AcDbLine
10
62
20
98
30
0
11
48
21
98
31
0
0
LINE
8
0
6
BYBLOCK
62
0
5
2764
100
AcDbEntity
100
AcDbLine
10
100
20
84
30
0
11
81
21
84
31
0
0
LINE
8
0
6
BYBLOCK
62
0
5
2765
100
AcDbEntity
100
AcDbLine
10
62
20
98
30
0
11
62
21
104
31
0
0
LINE
8
0
6
BYBLOCK
62
0
5
2766
100
AcDbEntity
100
AcDbLine
10
100
20
104
30
0
11
100
21
84
31
0
0
LINE
8
0
6
BYBLOCK
62
0
5
2767
100
AcDbEntity
100
AcDbLine
10
62
20
104
30
0
11
100
21
104
31
0
0
LINE
8
0
6
BYBLOCK
62
0
5
2768
100
AcDbEntity
100
AcDbLine
10
62
20
78.5
30
0
11
48
21
78.5
31
0
0
LINE
8
0
6
BYBLOCK
62
0
5
2769
100
AcDbEntity
100
AcDbLine
10
62
20
64.5
30
0
11
62
21
78.5
31
0
0
LINE
8
0
6
BYBLOCK
62
0
5
276a
100
AcDbEntity
100
AcDbLine
10
48
20
78.5
30
0
11
48
21
64.5
31
0
0
LINE
8
0
6
BYBLOCK
62
0
5
276b
100
AcDbEntity
100
AcDbLine
10
48
20
64.5
30
0
11
62
21
64.5
31
0
0
CIRCLE
8
0
6
BYBLOCK
62
0
5
276c
100
AcDbEntity
100
AcDbCircle
10
111.5
20
105
30
0
40
1.5
0
CIRCLE
8
0
6
BYBLOCK
62
0
5
276d
100
AcDbEntity
100
AcDbCircle
10
108.426
20
82.0889
30
0
40
2
0
CIRCLE
8
0
6
BYBLOCK
62
0
5
276e
100
AcDbEntity
100
AcDbCircle
10
111.5
20
10.5
30
0
40
1.5
0
CIRCLE
8
0
6
BYBLOCK
62
0
5
276f
100
AcDbEntity
100
AcDbCircle
10
111.5
20
29
30
0
40
1.5
0
ENDBLK
5
2770
100
AcDbEntity
8
0
100
AcDbBlockEnd
0
BLOCK
5
2771
100
AcDbEntity
8
0
100
AcDbBlockBegin
2
View1
70
0
10
0
20
0
3
View1
1

0
LINE
8
0
6
BYBLOCK
62
0
5
2772
100
AcDbEntity
100
AcDbLine
10
0
20
0
30
0
11
112
21
0
31
0
0
LINE
8
0
6
BYBLOCK
62
0
5
2773
100
AcDbEntity
100
AcDbLine
10
0
20
110
30
0
11
0
21
-1.42109e-014
31
0
0
ARC
8
0
6
BYBLOCK
62
0
5
2774
100
AcDbEntity
100
AcDbCircle
10
112
20
6
30
0
40
6
100
AcDbArc
50
-90
51
-6.12363e-012
0
LINE
8
0
6
BYBLOCK
62
0
5
2775
100
AcDbEntity
100
AcDbLine
10
112
20
110
30
0
11
-3.69482e-013
21
110
31
0
0
LINE
8
0
6
BYBLOCK
62
0
5
2776
100
AcDbEntity
100
AcDbLine
10
118
20
6
30
0
11
118
21
104
31
0
0
ARC
8
0
6
BYBLOCK
62
0
5
2777
100
AcDbEntity
100
AcDbCircle
10
112
20
104
30
0
40
6
100
AcDbArc
50
-5.97096e-012
51
90
0
LINE
8
0
6
BYBLOCK
62
0
5
2778
100
AcDbEntity
100
AcDbLine
10
86
20
78
30
0
11
100
21
78
31
0
0
LINE
8
0
6
BYBLOCK
62
0
5
2779
100
AcDbEntity
100
AcDbLine
10
86
20
64
30
0
11
86
21
78
31
0
0
LINE
8
0
6
BYBLOCK
62
0
5
277a
100
AcDbEntity
100
AcDbLine
10
100
20
78
30
0
11
100
21
64
31
0
0
LINE
8
0
6
BYBLOCK
62
0
5
277b
100
AcDbEntity
100
AcDbLine
10
100
20
64
30
0
11
86
21
64
31
0
0
LINE
8
0
6
BYBLOCK
62
0
5
277c
100
AcDbEntity
100
AcDbLine
10
86
20
44.5
30
0
11
86
21
58.5
31
0
0
LINE
8
0
6
BYBLOCK
62
0
5
277d
100
AcDbEntity
100
AcDbLine
10
100
20
44.5
30
0
11
86
21
44.5
31
0
0
LINE
8
0
6
BYBLOCK
62
0
5
277e
100
AcDbEntity
100
AcDbLine
10
86
20
58.5
30
0
11
100
21
58.5
31
0
0
LINE
8
0
6
BYBLOCK
62
0
5
277f
100
AcDbEntity
100
AcDbLine
10
100
20
58.5
30
0
11
100
21
44.5
31
0
0
LINE
8
0
6
BYBLOCK
62
0
5
2780
100
AcDbEntity
100
AcDbLine
10
67
20
90
30
0
11
67
21
76
31
0
0
LINE
8
0
6
BYBLOCK
62
0
5
2781
100
AcDbEntity
100
AcDbLine
10
81
20
90
30
0
11
67
21
90
31
0
0
LINE
8
0
6
BYBLOCK
62
0
5
2782
100
AcDbEntity
100
AcDbLine
10
67
20
76
30
0
11
81
21
76
31
0
0
LINE
8
0
6
BYBLOCK
62
0
5
2783
100
AcDbEntity
100
AcDbLine
10
81
20
76
30
0
11
81
21
90
31
0
0
LINE
8
0
6
BYBLOCK
62
0
5
2784
100
AcDbEntity
100
AcDbLine
10
24
20
60.5
30
0
11
10
21
60.5
31
0
0
LINE
8
0
6
BYBLOCK
62
0
5
2785
100
AcDbEntity
100
AcDbLine
10
24
20
46.5
30
0
11
24
21
60.5
31
0
0
LINE
8
0
6
BYBLOCK
62
0
5
2786
100
AcDbEntity
100
AcDbLine
10
10
20
60.5
30
0
11
10
21
46.5
31
0
0
LINE
8
0
6
BYBLOCK
62
0
5
2787
100
AcDbEntity
100
AcDbLine
10
10
20
46.5
30
0
11
24
21
46.5
31
0
0
LINE
8
0
6
BYBLOCK
62
0
5
2788
100
AcDbEntity
100
AcDbLine
10
43
20
57.5
30
0
11
43
21
71.5
31
0
0
LINE
8
0
6
BYBLOCK
62
0
5
2789
100
AcDbEntity
100
AcDbLine
10
29
20
57.5
30
0
11
43
21
57.5
31
0
0
LINE
8
0
6
BYBLOCK
62
0
5
278a
100
AcDbEntity
100
AcDbLine
10
43
20
71.5
30
0
11
29
21
71.5
31
0
0
LINE
8
0
6
BYBLOCK
62
0
5
278b
100
AcDbEntity
100
AcDbLine
10
29
20
71.5
30
0
11
29
21
57.5
31
0
0
LINE
8
0
6
BYBLOCK
62
0
5
278c
100
AcDbEntity
100
AcDbLine
10
48
20
84
30
0
11
62
21
84
31
0
0
LINE
8
0
6
BYBLOCK
62
0
5
278d
100
AcDbEntity
100
AcDbLine
10
48
20
98
30
0
11
48
21
84
31
0
0
LINE
8
0
6
BYBLOCK
62
0
5
278e
100
AcDbEntity
100
AcDbLine
10
62
20
84
30
0
11
62
21
98
31
0
0
LINE
8
0
6
BYBLOCK
62
0
5
278f
100
AcDbEntity
100
AcDbLine
10
62
20
98
30
0
11
48
21
98
31
0
0
LINE
8
0
6
BYBLOCK
62
0
5
2790
100
AcDbEntity
100
AcDbLine
10
29
20
91
30
0
11
29
21
77
31
0
0
LINE
8
0
6
BYBLOCK
62
0
5
2791
100
AcDbEntity
100
AcDbLine
10
43
20
91
30
0
11
29
21
91
31
0
0
LINE
8
0
6
BYBLOCK
62
0
5
2792
100
AcDbEntity
100
AcDbLine
10
29
20
77
30
0
11
43
21
77
31
0
0
LINE
8
0
6
BYBLOCK
62
0
5
2793
100
AcDbEntity
100
AcDbLine
10
43
20
77
30
0
11
43
21
91
31
0
0
CIRCLE
8
0
6
BYBLOCK
62
0
5
2794
100
AcDbEntity
100
AcDbCircle
10
93.4419
20
37.5415
30
0
40
2
0
LINE
8
0
6
BYBLOCK
62
0
5
2795
100
AcDbEntity
100
AcDbLine
10
81
20
18
30
0
11
67
21
18
31
0
0
LINE
8
0
6
BYBLOCK
62
0
5
2796
100
AcDbEntity
100
AcDbLine
10
81
20
32
30
0
11
81
21
18
31
0
0
LINE
8
0
6
BYBLOCK
62
0
5
2797
100
AcDbEntity
100
AcDbLine
10
67
20
18
30
0
11
67
21
32
31
0
0
LINE
8
0
6
BYBLOCK
62
0
5
2798
100
AcDbEntity
100
AcDbLine
10
67
20
32
30
0
11
81
21
32
31
0
0
LINE
8
0
6
BYBLOCK
62
0
5
2799
100
AcDbEntity
100
AcDbLine
10
81
20
51
30
0
11
67
21
51
31
0
0
LINE
8
0
6
BYBLOCK
62
0
5
279a
100
AcDbEntity
100
AcDbLine
10
81
20
37
30
0
11
81
21
51
31
0
0
LINE
8
0
6
BYBLOCK
62
0
5
279b
100
AcDbEntity
100
AcDbLine
10
67
20
51
30
0
11
67
21
37
31
0
0
LINE
8
0
6
BYBLOCK
62
0
5
279c
100
AcDbEntity
100
AcDbLine
10
67
20
37
30
0
11
81
21
37
31
0
0
LINE
8
0
6
BYBLOCK
62
0
5
279d
100
AcDbEntity
100
AcDbLine
10
62
20
40
30
0
11
62
21
26
31
0
0
LINE
8
0
6
BYBLOCK
62
0
5
279e
100
AcDbEntity
100
AcDbLine
10
48
20
40
30
0
11
62
21
40
31
0
0
LINE
8
0
6
BYBLOCK
62
0
5
279f
100
AcDbEntity
100
AcDbLine
10
62
20
26
30
0
11
48
21
26
31
0
0
LINE
8
0
6
BYBLOCK
62
0
5
27a0
100
AcDbEntity
100
AcDbLine
10
48
20
26
30
0
11
48
21
40
31
0
0
LINE
8
0
6
BYBLOCK
62
0
5
27a1
100
AcDbEntity
100
AcDbLine
10
62
20
45
30
0
11
62
21
59
31
0
0
LINE
8
0
6
BYBLOCK
62
0
5
27a2
100
AcDbEntity
100
AcDbLine
10
48
20
45
30
0
11
62
21
45
31
0
0
LINE
8
0
6
BYBLOCK
62
0
5
27a3
100
AcDbEntity
100
AcDbLine
10
62
20
59
30
0
11
48
21
59
31
0
0
LINE
8
0
6
BYBLOCK
62
0
5
27a4
100
AcDbEntity
100
AcDbLine
10
48
20
59
30
0
11
48
21
45
31
0
0
LINE
8
0
6
BYBLOCK
62
0
5
27a5
100
AcDbEntity
100
AcDbLine
10
62
20
78.5
30
0
11
48
21
78.5
31
0
0
LINE
8
0
6
BYBLOCK
62
0
5
27a6
100
AcDbEntity
100
AcDbLine
10
62
20
64.5
30
0
11
62
21
78.5
31
0
0
LINE
8
0
6
BYBLOCK
62
0
5
27a7
100
AcDbEntity
100
AcDbLine
10
48
20
78.5
30
0
11
48
21
64.5
31
0
0
LINE
8
0
6
BYBLOCK
62
0
5
27a8
100
AcDbEntity
100
AcDbLine
10
48
20
64.5
30
0
11
62
21
64.5
31
0
0
LINE
8
0
6
BYBLOCK
62
0
5
27a9
100
AcDbEntity
100
AcDbLine
10
81
20
56.5
30
0
11
81
21
70.5
31
0
0
LINE
8
0
6
BYBLOCK
62
0
5
27aa
100
AcDbEntity
100
AcDbLine
10
67
20
56.5
30
0
11
81
21
56.5
31
0
0
LINE
8
0
6
BYBLOCK
62
0
5
27ab
100
AcDbEntity
100
AcDbLine
10
81
20
70.5
30
0
11
67
21
70.5
31
0
0
LINE
8
0
6
BYBLOCK
62
0
5
27ac
100
AcDbEntity
100
AcDbLine
10
67
20
70.5
30
0
11
67
21
56.5
31
0
0
LINE
8
0
6
BYBLOCK
62
0
5
27ad
100
AcDbEntity
100
AcDbLine
10
62
20
7
30
0
11
48
21
7
31
0
0
LINE
8
0
6
BYBLOCK
62
0
5
27ae
100
AcDbEntity
100
AcDbLine
10
62
20
21
30
0
11
62
21
7
31
0
0
LINE
8
0
6
BYBLOCK
62
0
5
27af
100
AcDbEntity
100
AcDbLine
10
48
20
7
30
0
11
48
21
21
31
0
0
LINE
8
0
6
BYBLOCK
62
0
5
27b0
100
AcDbEntity
100
AcDbLine
10
48
20
21
30
0
11
62
21
21
31
0
0
LINE
8
0
6
BYBLOCK
62
0
5
27b1
100
AcDbEntity
100
AcDbLine
10
24
20
41
30
0
11
10
21
41
31
0
0
LINE
8
0
6
BYBLOCK
62
0
5
27b2
100
AcDbEntity
100
AcDbLine
10
24
20
27
30
0
11
24
21
41
31
0
0
LINE
8
0
6
BYBLOCK
62
0
5
27b3
100
AcDbEntity
100
AcDbLine
10
10
20
41
30
0
11
10
21
27
31
0
0
LINE
8
0
6
BYBLOCK
62
0
5
27b4
100
AcDbEntity
100
AcDbLine
10
10
20
27
30
0
11
24
21
27
31
0
0
LINE
8
0
6
BYBLOCK
62
0
5
27b5
100
AcDbEntity
100
AcDbLine
10
10
20
66
30
0
11
24
21
66
31
0
0
LINE
8
0
6
BYBLOCK
62
0
5
27b6
100
AcDbEntity
100
AcDbLine
10
10
20
80
30
0
11
10
21
66
31
0
0
LINE
8
0
6
BYBLOCK
62
0
5
27b7
100
AcDbEntity
100
AcDbLine
10
24
20
66
30
0
11
24
21
80
31
0
0
LINE
8
0
6
BYBLOCK
62
0
5
27b8
100
AcDbEntity
100
AcDbLine
10
24
20
80
30
0
11
10
21
80
31
0
0
LINE
8
0
6
BYBLOCK
62
0
5
27b9
100
AcDbEntity
100
AcDbLine
10
43
20
38
30
0
11
43
21
52
31
0
0
LINE
8
0
6
BYBLOCK
62
0
5
27ba
100
AcDbEntity
100
AcDbLine
10
29
20
38
30
0
11
43
21
38
31
0
0
LINE
8
0
6
BYBLOCK
62
0
5
27bb
100
AcDbEntity
100
AcDbLine
10
43
20
52
30
0
11
29
21
52
31
0
0
LINE
8
0
6
BYBLOCK
62
0
5
27bc
100
AcDbEntity
100
AcDbLine
10
29
20
52
30
0
11
29
21
38
31
0
0
LINE
8
0
6
BYBLOCK
62
0
5
27bd
100
AcDbEntity
100
AcDbLine
10
43
20
19
30
0
11
29
21
19
31
0
0
LINE
8
0
6
BYBLOCK
62
0
5
27be
100
AcDbEntity
100
AcDbLine
10
29
20
19
30
0
11
29
21
33
31
0
0
LINE
8
0
6
BYBLOCK
62
0
5
27bf
100
AcDbEntity
100
AcDbLine
10
29
20
33
30
0
11
43
21
33
31
0
0
LINE
8
0
6
BYBLOCK
62
0
5
27c0
100
AcDbEntity
100
AcDbLine
10
43
20
33
30
0
11
43
21
19
31
0
0
CIRCLE
8
0
6
BYBLOCK
62
0
5
27c1
100
AcDbEntity
100
AcDbCircle
10
111.5
20
10.5
30
0
40
1.5
0
CIRCLE
8
0
6
BYBLOCK
62
0
5
27c2
100
AcDbEntity
100
AcDbCircle
10
111.5
20
105
30
0
40
1.5
0
CIRCLE
8
0
6
BYBLOCK
62
0
5
27c3
100
AcDbEntity
100
AcDbCircle
10
108.426
20
82.0889
30
0
40
2
0
CIRCLE
8
0
6
BYBLOCK
62
0
5
27c4
100
AcDbEntity
100
AcDbCircle
10
41
20
105
30
0
40
1.5
0
CIRCLE
8
0
6
BYBLOCK
62
0
5
27c5
100
AcDbEntity
100
AcDbCircle
10
11
20
105
30
0
40
1.5
0
CIRCLE
8
0
6
BYBLOCK
62
0
5
27c6
100
AcDbEntity
100
AcDbCircle
10
111.5
20
29
30
0
40
1.5
0
CIRCLE
8
0
6
BYBLOCK
62
0
5
27c7
100
AcDbEntity
100
AcDbCircle
10
88.5
20
5
30
0
40
1.5
0
CIRCLE
8
0
6
BYBLOCK
62
0
5
27c8
100
AcDbEntity
100
AcDbCircle
10
11
20
5
30
0
40
1.5
0
ENDBLK
5
27c9
100
AcDbEntity
8
0
100
AcDbBlockEnd
0
ENDSEC
0
SECTION
2
ENTITIES
0
INSERT
5
27ca
8
0
6
BYLAYER
62
256
2
View0121
10
5.0
20
-115.0
30
0
41
1.0
42
1.0
43
1.0
50
0.0
0
INSERT
5
27cb
8
0
6
BYLAYER
62
256
2
View1
10
125.0
20
-115.0
30
0
41
1.0
42
1.0
43
1.0
50
0.0
0
ENDSEC
0
EOF