999
FreeCAD DXF exporter v0.16-6706 (Git)
0
SECTION
2
HEADER
9
$ACADVER
1
AC1009
0
ENDSEC
0
SECTION
2
BLOCKS
0
BLOCK
5
2711
100
AcDbEntity
8
0
100
AcDbBlockBegin
2
View0021
70
0
10
0
20
0
3
View0021
1

0
LINE
8
0
6
BYBLOCK
62
0
5
2712
100
AcDbEntity
100
AcDbLine
10
112
20
4.51905e-012
30
0
11
-7.10543e-014
21
4.51905e-012
31
0
0
ARC
8
0
6
BYBLOCK
62
0
5
2713
100
AcDbEntity
100
AcDbCircle
10
112
20
6
30
0
40
6
100
AcDbArc
50
-90
51
5.93704e-012
0
LINE
8
0
6
BYBLOCK
62
0
5
2714
100
AcDbEntity
100
AcDbLine
10
0
20
4.51905e-012
30
0
11
0
21
110
31
0
0
LINE
8
0
6
BYBLOCK
62
0
5
2715
100
AcDbEntity
100
AcDbLine
10
118
20
104
30
0
11
118
21
6
31
0
0
LINE
8
0
6
BYBLOCK
62
0
5
2716
100
AcDbEntity
100
AcDbLine
10
0
20
110
30
0
11
16
21
110
31
0
0
ARC
8
0
6
BYBLOCK
62
0
5
2717
100
AcDbEntity
100
AcDbCircle
10
112
20
104
30
0
40
6
100
AcDbArc
50
5.97096e-012
51
90
0
LINE
8
0
6
BYBLOCK
62
0
5
2718
100
AcDbEntity
100
AcDbLine
10
16
20
95
30
0
11
16
21
110
31
0
0
LINE
8
0
6
BYBLOCK
62
0
5
2719
100
AcDbEntity
100
AcDbLine
10
29
20
110
30
0
11
112
21
110
31
0
0
LINE
8
0
6
BYBLOCK
62
0
5
271a
100
AcDbEntity
100
AcDbLine
10
8
20
95
30
0
11
16
21
95
31
0
0
LINE
8
0
6
BYBLOCK
62
0
5
271b
100
AcDbEntity
100
AcDbLine
10
29
20
110
30
0
11
29
21
100
31
0
0
LINE
8
0
6
BYBLOCK
62
0
5
271c
100
AcDbEntity
100
AcDbLine
10
8
20
21.5
30
0
11
8
21
95
31
0
0
LINE
8
0
6
BYBLOCK
62
0
5
271d
100
AcDbEntity
100
AcDbLine
10
29
20
100
30
0
11
48
21
100
31
0
0
ARC
8
0
6
BYBLOCK
62
0
5
271e
100
AcDbEntity
100
AcDbCircle
10
21.4904
20
20.9904
30
0
40
13.5
100
AcDbArc
50
177.837
51
-87.8366
0
LINE
8
0
6
BYBLOCK
62
0
5
271f
100
AcDbEntity
100
AcDbLine
10
48
20
100
30
0
11
48
21
104
31
0
0
LINE
8
0
6
BYBLOCK
62
0
5
2720
100
AcDbEntity
100
AcDbLine
10
84.8229
20
7.5
30
0
11
22
21
7.5
31
0
0
LINE
8
0
6
BYBLOCK
62
0
5
2721
100
AcDbEntity
100
AcDbLine
10
48
20
104
30
0
11
100.5
21
104
31
0
0
LINE
8
0
6
BYBLOCK
62
0
5
2722
100
AcDbEntity
100
AcDbLine
10
84.8229
20
7.5
30
0
11
86.516
21
12.7329
31
0
0
LINE
8
0
6
BYBLOCK
62
0
5
2723
100
AcDbEntity
100
AcDbLine
10
100.5
20
44
30
0
11
100.5
21
104
31
0
0
LINE
8
0
6
BYBLOCK
62
0
5
2724
100
AcDbEntity
100
AcDbLine
10
102.691
20
7.5
30
0
11
86.516
21
12.7329
31
0
0
LINE
8
0
6
BYBLOCK
62
0
5
2725
100
AcDbEntity
100
AcDbLine
10
88
20
44
30
0
11
100.5
21
44
31
0
0
LINE
8
0
6
BYBLOCK
62
0
5
2726
100
AcDbEntity
100
AcDbLine
10
107
20
20.8202
30
0
11
102.691
21
7.5
31
0
0
LINE
8
0
6
BYBLOCK
62
0
5
2727
100
AcDbEntity
100
AcDbLine
10
88
20
30.8202
30
0
11
88
21
44
31
0
0
LINE
8
0
6
BYBLOCK
62
0
5
2728
100
AcDbEntity
100
AcDbLine
10
107
20
30.8202
30
0
11
107
21
20.8202
31
0
0
LINE
8
0
6
BYBLOCK
62
0
5
2729
100
AcDbEntity
100
AcDbLine
10
88
20
30.8202
30
0
11
107
21
30.8202
31
0
0
CIRCLE
8
0
6
BYBLOCK
62
0
5
272a
100
AcDbEntity
100
AcDbCircle
10
11
20
105
30
0
40
1.5
0
CIRCLE
8
0
6
BYBLOCK
62
0
5
272b
100
AcDbEntity
100
AcDbCircle
10
11
20
5
30
0
40
1.5
0
CIRCLE
8
0
6
BYBLOCK
62
0
5
272c
100
AcDbEntity
100
AcDbCircle
10
93.4419
20
37.5415
30
0
40
2
0
CIRCLE
8
0
6
BYBLOCK
62
0
5
272d
100
AcDbEntity
100
AcDbCircle
10
41
20
105
30
0
40
1.5
0
CIRCLE
8
0
6
BYBLOCK
62
0
5
272e
100
AcDbEntity
100
AcDbCircle
10
88.5
20
5
30
0
40
1.5
0
CIRCLE
8
0
6
BYBLOCK
62
0
5
272f
100
AcDbEntity
100
AcDbCircle
10
111.5
20
105
30
0
40
1.5
0
CIRCLE
8
0
6
BYBLOCK
62
0
5
2730
100
AcDbEntity
100
AcDbCircle
10
108.426
20
82.0889
30
0
40
2
0
CIRCLE
8
0
6
BYBLOCK
62
0
5
2731
100
AcDbEntity
100
AcDbCircle
10
111.5
20
29
30
0
40
1.5
0
CIRCLE
8
0
6
BYBLOCK
62
0
5
2732
100
AcDbEntity
100
AcDbCircle
10
111.5
20
10.5
30
0
40
1.5
0
ENDBLK
5
2733
100
AcDbEntity
8
0
100
AcDbBlockEnd
0
BLOCK
5
2734
100
AcDbEntity
8
0
100
AcDbBlockBegin
2
View0031
70
0
10
0
20
0
3
View0031
1

0
LINE
8
0
6
BYBLOCK
62
0
5
2735
100
AcDbEntity
100
AcDbLine
10
112
20
4.51816e-012
30
0
11
-7.10543e-014
21
4.51816e-012
31
0
0
ARC
8
0
6
BYBLOCK
62
0
5
2736
100
AcDbEntity
100
AcDbCircle
10
112
20
6
30
0
40
6
100
AcDbArc
50
-90
51
5.93704e-012
0
LINE
8
0
6
BYBLOCK
62
0
5
2737
100
AcDbEntity
100
AcDbLine
10
0
20
4.51816e-012
30
0
11
0
21
110
31
0
0
LINE
8
0
6
BYBLOCK
62
0
5
2738
100
AcDbEntity
100
AcDbLine
10
118
20
104
30
0
11
118
21
6
31
0
0
LINE
8
0
6
BYBLOCK
62
0
5
2739
100
AcDbEntity
100
AcDbLine
10
0
20
110
30
0
11
112
21
110
31
0
0
ARC
8
0
6
BYBLOCK
62
0
5
273a
100
AcDbEntity
100
AcDbCircle
10
112
20
104
30
0
40
6
100
AcDbArc
50
5.97096e-012
51
90
0
CIRCLE
8
0
6
BYBLOCK
62
0
5
273b
100
AcDbEntity
100
AcDbCircle
10
108.426
20
82.0889
30
0
40
2
0
CIRCLE
8
0
6
BYBLOCK
62
0
5
273c
100
AcDbEntity
100
AcDbCircle
10
93.4419
20
37.5415
30
0
40
2
0
LINE
8
0
6
BYBLOCK
62
0
5
273d
100
AcDbEntity
100
AcDbLine
10
107
20
21.2695
30
0
11
102.537
21
8
31
0
0
LINE
8
0
6
BYBLOCK
62
0
5
273e
100
AcDbEntity
100
AcDbLine
10
93.7305
20
25.7328
30
0
11
107
21
21.2695
31
0
0
LINE
8
0
6
BYBLOCK
62
0
5
273f
100
AcDbEntity
100
AcDbLine
10
102.537
20
8
30
0
11
89.2672
21
12.4634
31
0
0
LINE
8
0
6
BYBLOCK
62
0
5
2740
100
AcDbEntity
100
AcDbLine
10
89.2672
20
12.4634
30
0
11
93.7305
21
25.7328
31
0
0
CIRCLE
8
0
6
BYBLOCK
62
0
5
2741
100
AcDbEntity
100
AcDbCircle
10
111.5
20
29
30
0
40
1.5
0
CIRCLE
8
0
6
BYBLOCK
62
0
5
2742
100
AcDbEntity
100
AcDbCircle
10
111.5
20
10.5
30
0
40
1.5
0
CIRCLE
8
0
6
BYBLOCK
62
0
5
2743
100
AcDbEntity
100
AcDbCircle
10
88.5
20
5
30
0
40
1.5
0
CIRCLE
8
0
6
BYBLOCK
62
0
5
2744
100
AcDbEntity
100
AcDbCircle
10
5
20
10
30
0
40
2.5
0
CIRCLE
8
0
6
BYBLOCK
62
0
5
2745
100
AcDbEntity
100
AcDbCircle
10
11
20
5
30
0
40
1.5
0
CIRCLE
8
0
6
BYBLOCK
62
0
5
2746
100
AcDbEntity
100
AcDbCircle
10
62
20
5
30
0
40
2.5
0
LINE
8
0
6
BYBLOCK
62
0
5
2747
100
AcDbEntity
100
AcDbLine
10
73.5148
20
10.4495
30
0
11
66.4062
21
12.8406
31
0
0
LINE
8
0
6
BYBLOCK
62
0
5
2748
100
AcDbEntity
100
AcDbLine
10
73.5148
20
10.4495
30
0
11
76.7029
21
19.9277
31
0
0
LINE
8
0
6
BYBLOCK
62
0
5
2749
100
AcDbEntity
100
AcDbLine
10
66.4062
20
12.8406
30
0
11
69.5943
21
22.3188
31
0
0
LINE
8
0
6
BYBLOCK
62
0
5
274a
100
AcDbEntity
100
AcDbLine
10
69.5943
20
22.3188
30
0
11
76.7029
21
19.9277
31
0
0
CIRCLE
8
0
6
BYBLOCK
62
0
5
274b
100
AcDbEntity
100
AcDbCircle
10
41
20
105
30
0
40
1.5
0
CIRCLE
8
0
6
BYBLOCK
62
0
5
274c
100
AcDbEntity
100
AcDbCircle
10
111.5
20
105
30
0
40
1.5
0
CIRCLE
8
0
6
BYBLOCK
62
0
5
274d
100
AcDbEntity
100
AcDbCircle
10
11
20
105
30
0
40
1.5
0
CIRCLE
8
0
6
BYBLOCK
62
0
5
274e
100
AcDbEntity
100
AcDbCircle
10
5
20
100
30
0
40
2.5
0
ENDBLK
5
274f
100
AcDbEntity
8
0
100
AcDbBlockEnd
0
ENDSEC
0
SECTION
2
ENTITIES
0
INSERT
5
2750
8
0
6
BYLAYER
62
256
2
View0021
10
5.0
20
-115.0
30
0
41
1.0
42
1.0
43
1.0
50
0.0
0
INSERT
5
2751
8
0
6
BYLAYER
62
256
2
View0031
10
125.0
20
-115.0
30
0
41
1.0
42
1.0
43
1.0
50
0.0
0
ENDSEC
0
EOF