999
FreeCAD DXF exporter v0.16-Unknown
0
SECTION
2
HEADER
9
$ACADVER
1
AC1009
0
ENDSEC
0
SECTION
2
BLOCKS
0
BLOCK
5
2711
100
AcDbEntity
8
0
100
AcDbBlockBegin
2
View0081
70
0
10
0
20
0
3
View0081
1

0
LINE
8
0
6
BYBLOCK
62
0
5
2712
100
AcDbEntity
100
AcDbLine
10
118
20
99
30
0
11
118
21
20.1105
31
0
0
ARC
8
0
6
BYBLOCK
62
0
5
2713
100
AcDbEntity
100
AcDbCircle
10
112
20
99
30
0
40
6
100
AcDbArc
50
0
51
90
0
LINE
8
0
6
BYBLOCK
62
0
5
2714
100
AcDbEntity
100
AcDbLine
10
118
20
20.1105
30
0
11
80.8332
21
32.4995
31
0
0
LINE
8
0
6
BYBLOCK
62
0
5
2715
100
AcDbEntity
100
AcDbLine
10
105
20
105
30
0
11
112
21
105
31
0
0
LINE
8
0
6
BYBLOCK
62
0
5
2716
100
AcDbEntity
100
AcDbLine
10
80.8332
20
32.4995
30
0
11
105
21
105
31
0
0
CIRCLE
8
0
6
BYBLOCK
62
0
5
2717
100
AcDbEntity
100
AcDbCircle
10
108.083
20
81.8363
30
0
40
2
0
CIRCLE
8
0
6
BYBLOCK
62
0
5
2718
100
AcDbEntity
100
AcDbCircle
10
93.2205
20
37.2482
30
0
40
2
0
CIRCLE
8
0
6
BYBLOCK
62
0
5
2719
100
AcDbEntity
100
AcDbCircle
10
111.5
20
29
30
0
40
1.5
0
CIRCLE
8
0
6
BYBLOCK
62
0
5
271a
100
AcDbEntity
100
AcDbCircle
10
111.5
20
100
30
0
40
1.5
0
ENDBLK
5
271b
100
AcDbEntity
8
0
100
AcDbBlockEnd
0
BLOCK
5
271c
100
AcDbEntity
8
0
100
AcDbBlockBegin
2
View0091
70
0
10
0
20
0
3
View0091
1

0
LINE
8
0
6
BYBLOCK
62
0
5
271d
100
AcDbEntity
100
AcDbLine
10
112
20
0
30
0
11
70
21
0
31
0
0
ARC
8
0
6
BYBLOCK
62
0
5
271e
100
AcDbEntity
100
AcDbCircle
10
112
20
6
30
0
40
6
100
AcDbArc
50
-90
51
1.86593e-13
0
LINE
8
0
6
BYBLOCK
62
0
5
271f
100
AcDbEntity
100
AcDbLine
10
70
20
0
30
0
11
105
21
105
31
0
0
LINE
8
0
6
BYBLOCK
62
0
5
2720
100
AcDbEntity
100
AcDbLine
10
118
20
99
30
0
11
118
21
6
31
0
0
LINE
8
0
6
BYBLOCK
62
0
5
2721
100
AcDbEntity
100
AcDbLine
10
105
20
105
30
0
11
112
21
105
31
0
0
ARC
8
0
6
BYBLOCK
62
0
5
2722
100
AcDbEntity
100
AcDbCircle
10
112
20
99
30
0
40
6
100
AcDbArc
50
0
51
90
0
CIRCLE
8
0
6
BYBLOCK
62
0
5
2723
100
AcDbEntity
100
AcDbCircle
10
111.5
20
100
30
0
40
1.5
0
CIRCLE
8
0
6
BYBLOCK
62
0
5
2724
100
AcDbEntity
100
AcDbCircle
10
108.083
20
81.8363
30
0
40
2
0
CIRCLE
8
0
6
BYBLOCK
62
0
5
2725
100
AcDbEntity
100
AcDbCircle
10
93.2205
20
37.2482
30
0
40
2
0
CIRCLE
8
0
6
BYBLOCK
62
0
5
2726
100
AcDbEntity
100
AcDbCircle
10
88.5
20
5
30
0
40
1.5
0
LINE
8
0
6
BYBLOCK
62
0
5
2727
100
AcDbEntity
100
AcDbLine
10
87.2912
20
12.4272
30
0
11
91.7184
21
25.7088
31
0
0
LINE
8
0
6
BYBLOCK
62
0
5
2728
100
AcDbEntity
100
AcDbLine
10
100.573
20
8
30
0
11
87.2912
21
12.4272
31
0
0
LINE
8
0
6
BYBLOCK
62
0
5
2729
100
AcDbEntity
100
AcDbLine
10
91.7184
20
25.7088
30
0
11
105
21
21.2816
31
0
0
LINE
8
0
6
BYBLOCK
62
0
5
272a
100
AcDbEntity
100
AcDbLine
10
105
20
21.2816
30
0
11
100.573
21
8
31
0
0
CIRCLE
8
0
6
BYBLOCK
62
0
5
272b
100
AcDbEntity
100
AcDbCircle
10
111.5
20
10.5
30
0
40
1.5
0
CIRCLE
8
0
6
BYBLOCK
62
0
5
272c
100
AcDbEntity
100
AcDbCircle
10
111.5
20
29
30
0
40
1.5
0
ENDBLK
5
272d
100
AcDbEntity
8
0
100
AcDbBlockEnd
0
BLOCK
5
272e
100
AcDbEntity
8
0
100
AcDbBlockBegin
2
View0101
70
0
10
0
20
0
3
View0101
1

0
LINE
8
0
6
BYBLOCK
62
0
5
272f
100
AcDbEntity
100
AcDbLine
10
112
20
0
30
0
11
70
21
0
31
0
0
ARC
8
0
6
BYBLOCK
62
0
5
2730
100
AcDbEntity
100
AcDbCircle
10
112
20
6
30
0
40
6
100
AcDbArc
50
-90
51
1.86593e-13
0
LINE
8
0
6
BYBLOCK
62
0
5
2731
100
AcDbEntity
100
AcDbLine
10
70
20
0
30
0
11
105
21
105
31
0
0
LINE
8
0
6
BYBLOCK
62
0
5
2732
100
AcDbEntity
100
AcDbLine
10
118
20
99
30
0
11
118
21
6
31
0
0
LINE
8
0
6
BYBLOCK
62
0
5
2733
100
AcDbEntity
100
AcDbLine
10
105
20
105
30
0
11
112
21
105
31
0
0
ARC
8
0
6
BYBLOCK
62
0
5
2734
100
AcDbEntity
100
AcDbCircle
10
112
20
99
30
0
40
6
100
AcDbArc
50
0
51
90
0
CIRCLE
8
0
6
BYBLOCK
62
0
5
2735
100
AcDbEntity
100
AcDbCircle
10
111.5
20
100
30
0
40
1.5
0
CIRCLE
8
0
6
BYBLOCK
62
0
5
2736
100
AcDbEntity
100
AcDbCircle
10
108.083
20
81.8363
30
0
40
2
0
CIRCLE
8
0
6
BYBLOCK
62
0
5
2737
100
AcDbEntity
100
AcDbCircle
10
93.2205
20
37.2482
30
0
40
2
0
CIRCLE
8
0
6
BYBLOCK
62
0
5
2738
100
AcDbEntity
100
AcDbCircle
10
88.5
20
5
30
0
40
1.5
0
LINE
8
0
6
BYBLOCK
62
0
5
2739
100
AcDbEntity
100
AcDbLine
10
87.2912
20
12.4272
30
0
11
91.7184
21
25.7088
31
0
0
LINE
8
0
6
BYBLOCK
62
0
5
273a
100
AcDbEntity
100
AcDbLine
10
100.573
20
8
30
0
11
87.2912
21
12.4272
31
0
0
LINE
8
0
6
BYBLOCK
62
0
5
273b
100
AcDbEntity
100
AcDbLine
10
91.7184
20
25.7088
30
0
11
105
21
21.2816
31
0
0
LINE
8
0
6
BYBLOCK
62
0
5
273c
100
AcDbEntity
100
AcDbLine
10
105
20
21.2816
30
0
11
100.573
21
8
31
0
0
CIRCLE
8
0
6
BYBLOCK
62
0
5
273d
100
AcDbEntity
100
AcDbCircle
10
111.5
20
10.5
30
0
40
1.5
0
CIRCLE
8
0
6
BYBLOCK
62
0
5
273e
100
AcDbEntity
100
AcDbCircle
10
111.5
20
29
30
0
40
1.5
0
ENDBLK
5
273f
100
AcDbEntity
8
0
100
AcDbBlockEnd
0
BLOCK
5
2740
100
AcDbEntity
8
0
100
AcDbBlockBegin
2
View0111
70
0
10
0
20
0
3
View0111
1

0
LINE
8
0
6
BYBLOCK
62
0
5
2741
100
AcDbEntity
100
AcDbLine
10
112
20
0
30
0
11
70
21
0
31
0
0
ARC
8
0
6
BYBLOCK
62
0
5
2742
100
AcDbEntity
100
AcDbCircle
10
112
20
6
30
0
40
6
100
AcDbArc
50
-90
51
1.86593e-13
0
LINE
8
0
6
BYBLOCK
62
0
5
2743
100
AcDbEntity
100
AcDbLine
10
70
20
0
30
0
11
105
21
105
31
0
0
LINE
8
0
6
BYBLOCK
62
0
5
2744
100
AcDbEntity
100
AcDbLine
10
118
20
99
30
0
11
118
21
6
31
0
0
LINE
8
0
6
BYBLOCK
62
0
5
2745
100
AcDbEntity
100
AcDbLine
10
105
20
105
30
0
11
112
21
105
31
0
0
ARC
8
0
6
BYBLOCK
62
0
5
2746
100
AcDbEntity
100
AcDbCircle
10
112
20
99
30
0
40
6
100
AcDbArc
50
0
51
90
0
CIRCLE
8
0
6
BYBLOCK
62
0
5
2747
100
AcDbEntity
100
AcDbCircle
10
111.5
20
100
30
0
40
1.5
0
CIRCLE
8
0
6
BYBLOCK
62
0
5
2748
100
AcDbEntity
100
AcDbCircle
10
108.083
20
81.8363
30
0
40
2
0
CIRCLE
8
0
6
BYBLOCK
62
0
5
2749
100
AcDbEntity
100
AcDbCircle
10
93.2205
20
37.2482
30
0
40
2
0
CIRCLE
8
0
6
BYBLOCK
62
0
5
274a
100
AcDbEntity
100
AcDbCircle
10
88.5
20
5
30
0
40
1.5
0
LINE
8
0
6
BYBLOCK
62
0
5
274b
100
AcDbEntity
100
AcDbLine
10
87.2912
20
12.4272
30
0
11
91.7184
21
25.7088
31
0
0
LINE
8
0
6
BYBLOCK
62
0
5
274c
100
AcDbEntity
100
AcDbLine
10
100.573
20
8
30
0
11
87.2912
21
12.4272
31
0
0
LINE
8
0
6
BYBLOCK
62
0
5
274d
100
AcDbEntity
100
AcDbLine
10
91.7184
20
25.7088
30
0
11
105
21
21.2816
31
0
0
LINE
8
0
6
BYBLOCK
62
0
5
274e
100
AcDbEntity
100
AcDbLine
10
105
20
21.2816
30
0
11
100.573
21
8
31
0
0
CIRCLE
8
0
6
BYBLOCK
62
0
5
274f
100
AcDbEntity
100
AcDbCircle
10
111.5
20
10.5
30
0
40
1.5
0
CIRCLE
8
0
6
BYBLOCK
62
0
5
2750
100
AcDbEntity
100
AcDbCircle
10
111.5
20
29
30
0
40
1.5
0
ENDBLK
5
2751
100
AcDbEntity
8
0
100
AcDbBlockEnd
0
ENDSEC
0
SECTION
2
ENTITIES
0
INSERT
5
2752
8
0
6
BYLAYER
62
256
2
View0081
10
5.0
20
50.0
30
0
41
1.0
42
1.0
43
1.0
50
-90.0
0
INSERT
5
2753
8
0
6
BYLAYER
62
256
2
View0091
10
110.0
20
-120.0
30
0
41
1.0
42
1.0
43
1.0
50
90.0
0
INSERT
5
2754
8
0
6
BYLAYER
62
256
2
View0101
10
217.0
20
-120.0
30
0
41
1.0
42
1.0
43
1.0
50
90.0
0
INSERT
5
2755
8
0
6
BYLAYER
62
256
2
View0111
10
112.0
20
50.0
30
0
41
1.0
42
1.0
43
1.0
50
-90.0
0
ENDSEC
0
EOF