999
FreeCAD DXF exporter v0.16-Unknown
0
SECTION
2
HEADER
9
$ACADVER
1
AC1009
0
ENDSEC
0
SECTION
2
BLOCKS
0
BLOCK
5
2711
100
AcDbEntity
8
0
100
AcDbBlockBegin
2
View0041
70
0
10
0
20
0
3
View0041
1

0
LINE
8
0
6
BYBLOCK
62
0
5
2712
100
AcDbEntity
100
AcDbLine
10
0
20
0
30
0
11
0
21
105
31
0
0
LINE
8
0
6
BYBLOCK
62
0
5
2713
100
AcDbEntity
100
AcDbLine
10
70
20
0
30
0
11
0
21
0
31
0
0
LINE
8
0
6
BYBLOCK
62
0
5
2714
100
AcDbEntity
100
AcDbLine
10
0
20
105
30
0
11
105
21
105
31
0
0
LINE
8
0
6
BYBLOCK
62
0
5
2715
100
AcDbEntity
100
AcDbLine
10
105
20
105
30
0
11
70
21
2.55795e-13
31
0
0
CIRCLE
8
0
6
BYBLOCK
62
0
5
2716
100
AcDbEntity
100
AcDbCircle
10
73.7725
20
43.7309
30
0
40
2
0
LINE
8
0
6
BYBLOCK
62
0
5
2717
100
AcDbEntity
100
AcDbLine
10
59.9299
20
38.1877
30
0
11
73.0014
21
33.1742
31
0
0
LINE
8
0
6
BYBLOCK
62
0
5
2718
100
AcDbEntity
100
AcDbLine
10
54.9164
20
25.1162
30
0
11
59.9299
21
38.1877
31
0
0
LINE
8
0
6
BYBLOCK
62
0
5
2719
100
AcDbEntity
100
AcDbLine
10
73.0014
20
33.1742
30
0
11
67.9879
21
20.1027
31
0
0
LINE
8
0
6
BYBLOCK
62
0
5
271a
100
AcDbEntity
100
AcDbLine
10
67.9879
20
20.1027
30
0
11
54.9164
21
25.1162
31
0
0
LINE
8
0
6
BYBLOCK
62
0
5
271b
100
AcDbEntity
100
AcDbLine
10
36
20
26.0267
30
0
11
36
21
40.0267
31
0
0
LINE
8
0
6
BYBLOCK
62
0
5
271c
100
AcDbEntity
100
AcDbLine
10
50
20
26.0267
30
0
11
36
21
26.0267
31
0
0
LINE
8
0
6
BYBLOCK
62
0
5
271d
100
AcDbEntity
100
AcDbLine
10
36
20
40.0267
30
0
11
50
21
40.0267
31
0
0
LINE
8
0
6
BYBLOCK
62
0
5
271e
100
AcDbEntity
100
AcDbLine
10
50
20
40.0267
30
0
11
50
21
26.0267
31
0
0
CIRCLE
8
0
6
BYBLOCK
62
0
5
271f
100
AcDbEntity
100
AcDbCircle
10
5
20
10
30
0
40
1.5
0
LINE
8
0
6
BYBLOCK
62
0
5
2720
100
AcDbEntity
100
AcDbLine
10
18.0121
20
20.1027
30
0
11
12.9986
21
33.1742
31
0
0
LINE
8
0
6
BYBLOCK
62
0
5
2721
100
AcDbEntity
100
AcDbLine
10
31.0836
20
25.1162
30
0
11
18.0121
21
20.1027
31
0
0
LINE
8
0
6
BYBLOCK
62
0
5
2722
100
AcDbEntity
100
AcDbLine
10
12.9986
20
33.1742
30
0
11
26.0701
21
38.1877
31
0
0
LINE
8
0
6
BYBLOCK
62
0
5
2723
100
AcDbEntity
100
AcDbLine
10
26.0701
20
38.1877
30
0
11
31.0836
21
25.1162
31
0
0
CIRCLE
8
0
6
BYBLOCK
62
0
5
2724
100
AcDbEntity
100
AcDbCircle
10
5
20
95
30
0
40
1.5
0
CIRCLE
8
0
6
BYBLOCK
62
0
5
2725
100
AcDbEntity
100
AcDbCircle
10
88.6352
20
88.319
30
0
40
2
0
CIRCLE
8
0
6
BYBLOCK
62
0
5
2726
100
AcDbEntity
100
AcDbCircle
10
79.3065
20
66.6574
30
0
40
2
0
CIRCLE
8
0
6
BYBLOCK
62
0
5
2727
100
AcDbEntity
100
AcDbCircle
10
62
20
6
30
0
40
1.5
0
CIRCLE
8
0
6
BYBLOCK
62
0
5
2728
100
AcDbEntity
100
AcDbCircle
10
96
20
98
30
0
40
1.5
0
ENDBLK
5
2729
100
AcDbEntity
8
0
100
AcDbBlockEnd
0
BLOCK
5
272a
100
AcDbEntity
8
0
100
AcDbBlockBegin
2
View0051
70
0
10
0
20
0
3
View0051
1

0
LINE
8
0
6
BYBLOCK
62
0
5
272b
100
AcDbEntity
100
AcDbLine
10
0
20
0
30
0
11
0
21
105
31
0
0
LINE
8
0
6
BYBLOCK
62
0
5
272c
100
AcDbEntity
100
AcDbLine
10
70
20
0
30
0
11
0
21
0
31
0
0
LINE
8
0
6
BYBLOCK
62
0
5
272d
100
AcDbEntity
100
AcDbLine
10
0
20
105
30
0
11
105
21
105
31
0
0
LINE
8
0
6
BYBLOCK
62
0
5
272e
100
AcDbEntity
100
AcDbLine
10
73.2621
20
9.78641
30
0
11
70
21
2.55795e-13
31
0
0
LINE
8
0
6
BYBLOCK
62
0
5
272f
100
AcDbEntity
100
AcDbLine
10
105
20
105
30
0
11
76.5825
21
19.7476
31
0
0
LINE
8
0
6
BYBLOCK
62
0
5
2730
100
AcDbEntity
100
AcDbLine
10
73.2621
20
9.78641
30
0
11
66.6214
21
12
31
0
0
LINE
8
0
6
BYBLOCK
62
0
5
2731
100
AcDbEntity
100
AcDbLine
10
69.9417
20
21.9612
30
0
11
76.5825
21
19.7476
31
0
0
LINE
8
0
6
BYBLOCK
62
0
5
2732
100
AcDbEntity
100
AcDbLine
10
66.6214
20
12
30
0
11
12
21
12
31
0
0
LINE
8
0
6
BYBLOCK
62
0
5
2733
100
AcDbEntity
100
AcDbLine
10
74.3689
20
35.2427
30
0
11
69.9417
21
21.9612
31
0
0
LINE
8
0
6
BYBLOCK
62
0
5
2734
100
AcDbEntity
100
AcDbLine
10
12
20
42
30
0
11
12
21
12
31
0
0
LINE
8
0
6
BYBLOCK
62
0
5
2735
100
AcDbEntity
100
AcDbLine
10
57
20
42
30
0
11
74.3689
21
35.2427
31
0
0
LINE
8
0
6
BYBLOCK
62
0
5
2736
100
AcDbEntity
100
AcDbLine
10
12
20
42
30
0
11
57
21
42
31
0
0
CIRCLE
8
0
6
BYBLOCK
62
0
5
2737
100
AcDbEntity
100
AcDbCircle
10
96
20
98
30
0
40
1.5
0
CIRCLE
8
0
6
BYBLOCK
62
0
5
2738
100
AcDbEntity
100
AcDbCircle
10
88.6352
20
88.319
30
0
40
2
0
CIRCLE
8
0
6
BYBLOCK
62
0
5
2739
100
AcDbEntity
100
AcDbCircle
10
73.7725
20
43.7309
30
0
40
2
0
CIRCLE
8
0
6
BYBLOCK
62
0
5
273a
100
AcDbEntity
100
AcDbCircle
10
79.3065
20
66.6574
30
0
40
2
0
CIRCLE
8
0
6
BYBLOCK
62
0
5
273b
100
AcDbEntity
100
AcDbCircle
10
5
20
95
30
0
40
1.5
0
CIRCLE
8
0
6
BYBLOCK
62
0
5
273c
100
AcDbEntity
100
AcDbCircle
10
5
20
10
30
0
40
1.5
0
CIRCLE
8
0
6
BYBLOCK
62
0
5
273d
100
AcDbEntity
100
AcDbCircle
10
62
20
6
30
0
40
1.5
0
ENDBLK
5
273e
100
AcDbEntity
8
0
100
AcDbBlockEnd
0
BLOCK
5
273f
100
AcDbEntity
8
0
100
AcDbBlockBegin
2
View0061
70
0
10
0
20
0
3
View0061
1

0
LINE
8
0
6
BYBLOCK
62
0
5
2740
100
AcDbEntity
100
AcDbLine
10
0
20
0
30
0
11
0
21
105
31
0
0
LINE
8
0
6
BYBLOCK
62
0
5
2741
100
AcDbEntity
100
AcDbLine
10
70
20
0
30
0
11
0
21
0
31
0
0
LINE
8
0
6
BYBLOCK
62
0
5
2742
100
AcDbEntity
100
AcDbLine
10
0
20
105
30
0
11
105
21
105
31
0
0
LINE
8
0
6
BYBLOCK
62
0
5
2743
100
AcDbEntity
100
AcDbLine
10
105
20
105
30
0
11
70
21
2.55795e-13
31
0
0
CIRCLE
8
0
6
BYBLOCK
62
0
5
2744
100
AcDbEntity
100
AcDbCircle
10
73.7725
20
43.7309
30
0
40
2
0
LINE
8
0
6
BYBLOCK
62
0
5
2745
100
AcDbEntity
100
AcDbLine
10
59.9299
20
38.1877
30
0
11
73.0014
21
33.1742
31
0
0
LINE
8
0
6
BYBLOCK
62
0
5
2746
100
AcDbEntity
100
AcDbLine
10
54.9164
20
25.1162
30
0
11
59.9299
21
38.1877
31
0
0
LINE
8
0
6
BYBLOCK
62
0
5
2747
100
AcDbEntity
100
AcDbLine
10
73.0014
20
33.1742
30
0
11
67.9879
21
20.1027
31
0
0
LINE
8
0
6
BYBLOCK
62
0
5
2748
100
AcDbEntity
100
AcDbLine
10
67.9879
20
20.1027
30
0
11
54.9164
21
25.1162
31
0
0
LINE
8
0
6
BYBLOCK
62
0
5
2749
100
AcDbEntity
100
AcDbLine
10
36
20
26.0267
30
0
11
36
21
40.0267
31
0
0
LINE
8
0
6
BYBLOCK
62
0
5
274a
100
AcDbEntity
100
AcDbLine
10
50
20
26.0267
30
0
11
36
21
26.0267
31
0
0
LINE
8
0
6
BYBLOCK
62
0
5
274b
100
AcDbEntity
100
AcDbLine
10
36
20
40.0267
30
0
11
50
21
40.0267
31
0
0
LINE
8
0
6
BYBLOCK
62
0
5
274c
100
AcDbEntity
100
AcDbLine
10
50
20
40.0267
30
0
11
50
21
26.0267
31
0
0
CIRCLE
8
0
6
BYBLOCK
62
0
5
274d
100
AcDbEntity
100
AcDbCircle
10
5
20
10
30
0
40
1.5
0
LINE
8
0
6
BYBLOCK
62
0
5
274e
100
AcDbEntity
100
AcDbLine
10
18.0121
20
20.1027
30
0
11
12.9986
21
33.1742
31
0
0
LINE
8
0
6
BYBLOCK
62
0
5
274f
100
AcDbEntity
100
AcDbLine
10
31.0836
20
25.1162
30
0
11
18.0121
21
20.1027
31
0
0
LINE
8
0
6
BYBLOCK
62
0
5
2750
100
AcDbEntity
100
AcDbLine
10
12.9986
20
33.1742
30
0
11
26.0701
21
38.1877
31
0
0
LINE
8
0
6
BYBLOCK
62
0
5
2751
100
AcDbEntity
100
AcDbLine
10
26.0701
20
38.1877
30
0
11
31.0836
21
25.1162
31
0
0
CIRCLE
8
0
6
BYBLOCK
62
0
5
2752
100
AcDbEntity
100
AcDbCircle
10
5
20
95
30
0
40
1.5
0
CIRCLE
8
0
6
BYBLOCK
62
0
5
2753
100
AcDbEntity
100
AcDbCircle
10
88.6352
20
88.319
30
0
40
2
0
CIRCLE
8
0
6
BYBLOCK
62
0
5
2754
100
AcDbEntity
100
AcDbCircle
10
79.3065
20
66.6574
30
0
40
2
0
CIRCLE
8
0
6
BYBLOCK
62
0
5
2755
100
AcDbEntity
100
AcDbCircle
10
62
20
6
30
0
40
1.5
0
CIRCLE
8
0
6
BYBLOCK
62
0
5
2756
100
AcDbEntity
100
AcDbCircle
10
96
20
98
30
0
40
1.5
0
ENDBLK
5
2757
100
AcDbEntity
8
0
100
AcDbBlockEnd
0
BLOCK
5
2758
100
AcDbEntity
8
0
100
AcDbBlockBegin
2
View0071
70
0
10
0
20
0
3
View0071
1

0
LINE
8
0
6
BYBLOCK
62
0
5
2759
100
AcDbEntity
100
AcDbLine
10
0
20
0
30
0
11
0
21
105
31
0
0
LINE
8
0
6
BYBLOCK
62
0
5
275a
100
AcDbEntity
100
AcDbLine
10
70
20
0
30
0
11
0
21
0
31
0
0
LINE
8
0
6
BYBLOCK
62
0
5
275b
100
AcDbEntity
100
AcDbLine
10
0
20
105
30
0
11
105
21
105
31
0
0
LINE
8
0
6
BYBLOCK
62
0
5
275c
100
AcDbEntity
100
AcDbLine
10
73.3234
20
9.97018
30
0
11
70
21
2.55795e-13
31
0
0
LINE
8
0
6
BYBLOCK
62
0
5
275d
100
AcDbEntity
100
AcDbLine
10
105
20
105
30
0
11
76.4857
21
19.457
31
0
0
LINE
8
0
6
BYBLOCK
62
0
5
275e
100
AcDbEntity
100
AcDbLine
10
73.3234
20
9.97018
30
0
11
68.1056
21
11.7094
31
0
0
LINE
8
0
6
BYBLOCK
62
0
5
275f
100
AcDbEntity
100
AcDbLine
10
71.2679
20
21.1963
30
0
11
76.4857
21
19.457
31
0
0
LINE
8
0
6
BYBLOCK
62
0
5
2760
100
AcDbEntity
100
AcDbLine
10
68.1056
20
11.7094
30
0
11
71.2679
21
21.1963
31
0
0
CIRCLE
8
0
6
BYBLOCK
62
0
5
2761
100
AcDbEntity
100
AcDbCircle
10
62
20
6
30
0
40
1.5
0
CIRCLE
8
0
6
BYBLOCK
62
0
5
2762
100
AcDbEntity
100
AcDbCircle
10
11
20
5
30
0
40
2.5
0
LINE
8
0
6
BYBLOCK
62
0
5
2763
100
AcDbEntity
100
AcDbLine
10
77.6066
20
42.4529
30
0
11
76.7963
21
46.4123
31
0
0
LINE
8
0
6
BYBLOCK
62
0
5
2764
100
AcDbEntity
100
AcDbLine
10
74.5827
20
39.7715
30
0
11
77.6066
21
42.4529
31
0
0
LINE
8
0
6
BYBLOCK
62
0
5
2765
100
AcDbEntity
100
AcDbLine
10
76.7963
20
46.4123
30
0
11
72.9623
21
47.6903
31
0
0
LINE
8
0
6
BYBLOCK
62
0
5
2766
100
AcDbEntity
100
AcDbLine
10
70.7487
20
41.0495
30
0
11
74.5827
21
39.7715
31
0
0
LINE
8
0
6
BYBLOCK
62
0
5
2767
100
AcDbEntity
100
AcDbLine
10
72.9623
20
47.6903
30
0
11
69.9385
21
45.0089
31
0
0
LINE
8
0
6
BYBLOCK
62
0
5
2768
100
AcDbEntity
100
AcDbLine
10
69.9385
20
45.0089
30
0
11
70.7487
21
41.0495
31
0
0
CIRCLE
8
0
6
BYBLOCK
62
0
5
2769
100
AcDbEntity
100
AcDbCircle
10
5
20
10
30
0
40
1.5
0
CIRCLE
8
0
6
BYBLOCK
62
0
5
276a
100
AcDbEntity
100
AcDbCircle
10
96
20
98
30
0
40
1.5
0
LINE
8
0
6
BYBLOCK
62
0
5
276b
100
AcDbEntity
100
AcDbLine
10
91.659
20
91.0004
30
0
11
87.825
21
92.2784
31
0
0
LINE
8
0
6
BYBLOCK
62
0
5
276c
100
AcDbEntity
100
AcDbLine
10
92.4693
20
87.041
30
0
11
91.659
21
91.0004
31
0
0
LINE
8
0
6
BYBLOCK
62
0
5
276d
100
AcDbEntity
100
AcDbLine
10
87.825
20
92.2784
30
0
11
84.8012
21
89.597
31
0
0
LINE
8
0
6
BYBLOCK
62
0
5
276e
100
AcDbEntity
100
AcDbLine
10
89.4454
20
84.3596
30
0
11
92.4693
21
87.041
31
0
0
LINE
8
0
6
BYBLOCK
62
0
5
276f
100
AcDbEntity
100
AcDbLine
10
84.8012
20
89.597
30
0
11
85.6114
21
85.6376
31
0
0
LINE
8
0
6
BYBLOCK
62
0
5
2770
100
AcDbEntity
100
AcDbLine
10
85.6114
20
85.6376
30
0
11
89.4454
21
84.3596
31
0
0
CIRCLE
8
0
6
BYBLOCK
62
0
5
2771
100
AcDbEntity
100
AcDbCircle
10
11
20
100
30
0
40
2.5
0
LINE
8
0
6
BYBLOCK
62
0
5
2772
100
AcDbEntity
100
AcDbLine
10
83.1406
20
65.3794
30
0
11
82.3303
21
69.3388
31
0
0
LINE
8
0
6
BYBLOCK
62
0
5
2773
100
AcDbEntity
100
AcDbLine
10
80.1167
20
62.698
30
0
11
83.1406
21
65.3794
31
0
0
LINE
8
0
6
BYBLOCK
62
0
5
2774
100
AcDbEntity
100
AcDbLine
10
82.3303
20
69.3388
30
0
11
78.4963
21
70.6168
31
0
0
LINE
8
0
6
BYBLOCK
62
0
5
2775
100
AcDbEntity
100
AcDbLine
10
76.2827
20
63.976
30
0
11
80.1167
21
62.698
31
0
0
LINE
8
0
6
BYBLOCK
62
0
5
2776
100
AcDbEntity
100
AcDbLine
10
78.4963
20
70.6168
30
0
11
75.4724
21
67.9354
31
0
0
LINE
8
0
6
BYBLOCK
62
0
5
2777
100
AcDbEntity
100
AcDbLine
10
75.4724
20
67.9354
30
0
11
76.2827
21
63.976
31
0
0
CIRCLE
8
0
6
BYBLOCK
62
0
5
2778
100
AcDbEntity
100
AcDbCircle
10
5
20
95
30
0
40
1.5
0
ENDBLK
5
2779
100
AcDbEntity
8
0
100
AcDbBlockEnd
0
ENDSEC
0
SECTION
2
ENTITIES
0
INSERT
5
277a
8
0
6
BYLAYER
62
256
2
View0041
10
5.0
20
-110.0
30
0
41
1.0
42
1.0
43
1.0
50
0.0
0
INSERT
5
277b
8
0
6
BYLAYER
62
256
2
View0051
10
182.0
20
-5.0
30
0
41
1.0
42
1.0
43
1.0
50
-180.0
0
INSERT
5
277c
8
0
6
BYLAYER
62
256
2
View0061
10
182.0
20
-115.0
30
0
41
1.0
42
1.0
43
1.0
50
-180.0
0
INSERT
5
277d
8
0
6
BYLAYER
62
256
2
View0071
10
5.0
20
-220.0
30
0
41
1.0
42
1.0
43
1.0
50
0.0
0
ENDSEC
0
EOF