999
FreeCAD DXF exporter v0.16-6706 (Git)
0
SECTION
2
HEADER
9
$ACADVER
1
AC1009
0
ENDSEC
0
SECTION
2
BLOCKS
0
BLOCK
5
2711
100
AcDbEntity
8
0
100
AcDbBlockBegin
2
View0151
70
0
10
0
20
0
3
View0151
1

0
LINE
8
0
6
BYBLOCK
62
0
5
2712
100
AcDbEntity
100
AcDbLine
10
0
20
0
30
0
11
0
21
110
31
0
0
LINE
8
0
6
BYBLOCK
62
0
5
2713
100
AcDbEntity
100
AcDbLine
10
70
20
0
30
0
11
0
21
0
31
0
0
LINE
8
0
6
BYBLOCK
62
0
5
2714
100
AcDbEntity
100
AcDbLine
10
0
20
110
30
0
11
107
21
110
31
0
0
LINE
8
0
6
BYBLOCK
62
0
5
2715
100
AcDbEntity
100
AcDbLine
10
73.3467
20
9.94951
30
0
11
70
21
-5.68434e-014
31
0
0
LINE
8
0
6
BYBLOCK
62
0
5
2716
100
AcDbEntity
100
AcDbLine
10
107
20
110
30
0
11
76.5348
21
19.4277
31
0
0
LINE
8
0
6
BYBLOCK
62
0
5
2717
100
AcDbEntity
100
AcDbLine
10
73.3467
20
9.94951
30
0
11
68.1337
21
11.703
31
0
0
LINE
8
0
6
BYBLOCK
62
0
5
2718
100
AcDbEntity
100
AcDbLine
10
71.3218
20
21.1812
30
0
11
76.5348
21
19.4277
31
0
0
LINE
8
0
6
BYBLOCK
62
0
5
2719
100
AcDbEntity
100
AcDbLine
10
68.1337
20
11.703
30
0
11
71.3218
21
21.1812
31
0
0
LINE
8
0
6
BYBLOCK
62
0
5
271a
100
AcDbEntity
100
AcDbLine
10
74.8111
20
40.1155
30
0
11
77.8422
21
42.7886
31
0
0
LINE
8
0
6
BYBLOCK
62
0
5
271b
100
AcDbEntity
100
AcDbLine
10
70.9805
20
41.404
30
0
11
74.8111
21
40.1155
31
0
0
LINE
8
0
6
BYBLOCK
62
0
5
271c
100
AcDbEntity
100
AcDbLine
10
77.8422
20
42.7886
30
0
11
77.0427
21
46.7502
31
0
0
LINE
8
0
6
BYBLOCK
62
0
5
271d
100
AcDbEntity
100
AcDbLine
10
70.1811
20
45.3656
30
0
11
70.9805
21
41.404
31
0
0
LINE
8
0
6
BYBLOCK
62
0
5
271e
100
AcDbEntity
100
AcDbLine
10
77.0427
20
46.7502
30
0
11
73.2122
21
48.0387
31
0
0
LINE
8
0
6
BYBLOCK
62
0
5
271f
100
AcDbEntity
100
AcDbLine
10
73.2122
20
48.0387
30
0
11
70.1811
21
45.3656
31
0
0
LINE
8
0
6
BYBLOCK
62
0
5
2720
100
AcDbEntity
100
AcDbLine
10
83.4386
20
65.7
30
0
11
82.6392
21
69.6616
31
0
0
LINE
8
0
6
BYBLOCK
62
0
5
2721
100
AcDbEntity
100
AcDbLine
10
80.4075
20
63.0269
30
0
11
83.4386
21
65.7
31
0
0
LINE
8
0
6
BYBLOCK
62
0
5
2722
100
AcDbEntity
100
AcDbLine
10
82.6392
20
69.6616
30
0
11
78.8086
21
70.95
31
0
0
LINE
8
0
6
BYBLOCK
62
0
5
2723
100
AcDbEntity
100
AcDbLine
10
76.5769
20
64.3153
30
0
11
80.4075
21
63.0269
31
0
0
LINE
8
0
6
BYBLOCK
62
0
5
2724
100
AcDbEntity
100
AcDbLine
10
78.8086
20
70.95
30
0
11
75.7775
21
68.2769
31
0
0
LINE
8
0
6
BYBLOCK
62
0
5
2725
100
AcDbEntity
100
AcDbLine
10
75.7775
20
68.2769
30
0
11
76.5769
21
64.3153
31
0
0
CIRCLE
8
0
6
BYBLOCK
62
0
5
2726
100
AcDbEntity
100
AcDbCircle
10
98
20
103
30
0
40
2.5
0
LINE
8
0
6
BYBLOCK
62
0
5
2727
100
AcDbEntity
100
AcDbLine
10
89.7952
20
84.663
30
0
11
92.8263
21
87.3361
31
0
0
LINE
8
0
6
BYBLOCK
62
0
5
2728
100
AcDbEntity
100
AcDbLine
10
85.9646
20
85.9514
30
0
11
89.7952
21
84.663
31
0
0
LINE
8
0
6
BYBLOCK
62
0
5
2729
100
AcDbEntity
100
AcDbLine
10
92.8263
20
87.3361
30
0
11
92.0269
21
91.2977
31
0
0
LINE
8
0
6
BYBLOCK
62
0
5
272a
100
AcDbEntity
100
AcDbLine
10
85.1652
20
89.913
30
0
11
85.9646
21
85.9514
31
0
0
LINE
8
0
6
BYBLOCK
62
0
5
272b
100
AcDbEntity
100
AcDbLine
10
92.0269
20
91.2977
30
0
11
88.1963
21
92.5861
31
0
0
LINE
8
0
6
BYBLOCK
62
0
5
272c
100
AcDbEntity
100
AcDbLine
10
88.1963
20
92.5861
30
0
11
85.1652
21
89.913
31
0
0
CIRCLE
8
0
6
BYBLOCK
62
0
5
272d
100
AcDbEntity
100
AcDbCircle
10
41
20
105
30
0
40
2.5
0
CIRCLE
8
0
6
BYBLOCK
62
0
5
272e
100
AcDbEntity
100
AcDbCircle
10
5
20
10
30
0
40
1.5
0
CIRCLE
8
0
6
BYBLOCK
62
0
5
272f
100
AcDbEntity
100
AcDbCircle
10
11
20
105
30
0
40
2.5
0
CIRCLE
8
0
6
BYBLOCK
62
0
5
2730
100
AcDbEntity
100
AcDbCircle
10
5
20
100
30
0
40
1.5
0
CIRCLE
8
0
6
BYBLOCK
62
0
5
2731
100
AcDbEntity
100
AcDbCircle
10
62
20
5
30
0
40
1.5
0
CIRCLE
8
0
6
BYBLOCK
62
0
5
2732
100
AcDbEntity
100
AcDbCircle
10
11
20
5
30
0
40
2.5
0
ENDBLK
5
2733
100
AcDbEntity
8
0
100
AcDbBlockEnd
0
BLOCK
5
2734
100
AcDbEntity
8
0
100
AcDbBlockBegin
2
View0161
70
0
10
0
20
0
3
View0161
1

0
LINE
8
0
6
BYBLOCK
62
0
5
2735
100
AcDbEntity
100
AcDbLine
10
0
20
0
30
0
11
0
21
110
31
0
0
LINE
8
0
6
BYBLOCK
62
0
5
2736
100
AcDbEntity
100
AcDbLine
10
70
20
0
30
0
11
0
21
0
31
0
0
LINE
8
0
6
BYBLOCK
62
0
5
2737
100
AcDbEntity
100
AcDbLine
10
0
20
110
30
0
11
107
21
110
31
0
0
LINE
8
0
6
BYBLOCK
62
0
5
2738
100
AcDbEntity
100
AcDbLine
10
81.0169
20
32.7528
30
0
11
70
21
-5.68434e-014
31
0
0
LINE
8
0
6
BYBLOCK
62
0
5
2739
100
AcDbEntity
100
AcDbLine
10
107
20
110
30
0
11
101.421
21
93.4132
31
0
0
LINE
8
0
6
BYBLOCK
62
0
5
273a
100
AcDbEntity
100
AcDbLine
10
71.5387
20
35.9409
30
0
11
81.0169
21
32.7528
31
0
0
LINE
8
0
6
BYBLOCK
62
0
5
273b
100
AcDbEntity
100
AcDbLine
10
101.421
20
93.4132
30
0
11
91.9426
21
96.6013
31
0
0
ARC
8
0
6
BYBLOCK
62
0
5
273c
100
AcDbEntity
100
AcDbCircle
10
74.0892
20
43.5235
30
0
40
8
100
AcDbArc
50
161.409
51
-108.591
0
ARC
8
0
6
BYBLOCK
62
0
5
273d
100
AcDbEntity
100
AcDbCircle
10
89.3921
20
89.0188
30
0
40
8
100
AcDbArc
50
71.4089
51
161.409
0
LINE
8
0
6
BYBLOCK
62
0
5
273e
100
AcDbEntity
100
AcDbLine
10
81.8096
20
91.5692
30
0
11
66.5066
21
46.074
31
0
0
CIRCLE
8
0
6
BYBLOCK
62
0
5
273f
100
AcDbEntity
100
AcDbCircle
10
98
20
103
30
0
40
1.5
0
LINE
8
0
6
BYBLOCK
62
0
5
2740
100
AcDbEntity
100
AcDbLine
10
50
20
26.0267
30
0
11
36
21
26.0267
31
0
0
LINE
8
0
6
BYBLOCK
62
0
5
2741
100
AcDbEntity
100
AcDbLine
10
50
20
40.0267
30
0
11
50
21
26.0267
31
0
0
LINE
8
0
6
BYBLOCK
62
0
5
2742
100
AcDbEntity
100
AcDbLine
10
36
20
26.0267
30
0
11
36
21
40.0267
31
0
0
LINE
8
0
6
BYBLOCK
62
0
5
2743
100
AcDbEntity
100
AcDbLine
10
36
20
40.0267
30
0
11
50
21
40.0267
31
0
0
LINE
8
0
6
BYBLOCK
62
0
5
2744
100
AcDbEntity
100
AcDbLine
10
59.9299
20
38.1877
30
0
11
73.0014
21
33.1742
31
0
0
LINE
8
0
6
BYBLOCK
62
0
5
2745
100
AcDbEntity
100
AcDbLine
10
54.9164
20
25.1162
30
0
11
59.9299
21
38.1877
31
0
0
LINE
8
0
6
BYBLOCK
62
0
5
2746
100
AcDbEntity
100
AcDbLine
10
73.0014
20
33.1742
30
0
11
67.9879
21
20.1027
31
0
0
LINE
8
0
6
BYBLOCK
62
0
5
2747
100
AcDbEntity
100
AcDbLine
10
67.9879
20
20.1027
30
0
11
54.9164
21
25.1162
31
0
0
CIRCLE
8
0
6
BYBLOCK
62
0
5
2748
100
AcDbEntity
100
AcDbCircle
10
5
20
10
30
0
40
1.5
0
CIRCLE
8
0
6
BYBLOCK
62
0
5
2749
100
AcDbEntity
100
AcDbCircle
10
5
20
100
30
0
40
1.5
0
LINE
8
0
6
BYBLOCK
62
0
5
274a
100
AcDbEntity
100
AcDbLine
10
18.0121
20
20.1027
30
0
11
12.9986
21
33.1742
31
0
0
LINE
8
0
6
BYBLOCK
62
0
5
274b
100
AcDbEntity
100
AcDbLine
10
31.0836
20
25.1162
30
0
11
18.0121
21
20.1027
31
0
0
LINE
8
0
6
BYBLOCK
62
0
5
274c
100
AcDbEntity
100
AcDbLine
10
12.9986
20
33.1742
30
0
11
26.0701
21
38.1877
31
0
0
LINE
8
0
6
BYBLOCK
62
0
5
274d
100
AcDbEntity
100
AcDbLine
10
26.0701
20
38.1877
30
0
11
31.0836
21
25.1162
31
0
0
CIRCLE
8
0
6
BYBLOCK
62
0
5
274e
100
AcDbEntity
100
AcDbCircle
10
62
20
5
30
0
40
1.5
0
ENDBLK
5
274f
100
AcDbEntity
8
0
100
AcDbBlockEnd
0
ENDSEC
0
SECTION
2
ENTITIES
0
INSERT
5
2750
8
0
6
BYLAYER
62
256
2
View0151
10
184.0
20
-5.0
30
0
41
1.0
42
1.0
43
1.0
50
-180.0
0
INSERT
5
2751
8
0
6
BYLAYER
62
256
2
View0161
10
5.0
20
-115.0
30
0
41
1.0
42
1.0
43
1.0
50
0.0
0
ENDSEC
0
EOF