999
FreeCAD DXF exporter v0.16-Unknown
0
SECTION
2
HEADER
9
$ACADVER
1
AC1009
0
ENDSEC
0
SECTION
2
BLOCKS
0
BLOCK
5
2711
100
AcDbEntity
8
0
100
AcDbBlockBegin
2
View0121
70
0
10
0
20
0
3
View0121
1

0
LINE
8
0
6
BYBLOCK
62
0
5
2712
100
AcDbEntity
100
AcDbLine
10
0
20
0
30
0
11
0
21
105
31
0
0
LINE
8
0
6
BYBLOCK
62
0
5
2713
100
AcDbEntity
100
AcDbLine
10
70
20
0
30
0
11
0
21
0
31
0
0
LINE
8
0
6
BYBLOCK
62
0
5
2714
100
AcDbEntity
100
AcDbLine
10
0
20
105
30
0
11
105
21
105
31
0
0
LINE
8
0
6
BYBLOCK
62
0
5
2715
100
AcDbEntity
100
AcDbLine
10
105
20
105
30
0
11
70
21
2.55795e-13
31
0
0
CIRCLE
8
0
6
BYBLOCK
62
0
5
2716
100
AcDbEntity
100
AcDbCircle
10
73.7725
20
43.7309
30
0
40
2
0
LINE
8
0
6
BYBLOCK
62
0
5
2717
100
AcDbEntity
100
AcDbLine
10
59.9299
20
38.1877
30
0
11
73.0014
21
33.1742
31
0
0
LINE
8
0
6
BYBLOCK
62
0
5
2718
100
AcDbEntity
100
AcDbLine
10
54.9164
20
25.1162
30
0
11
59.9299
21
38.1877
31
0
0
LINE
8
0
6
BYBLOCK
62
0
5
2719
100
AcDbEntity
100
AcDbLine
10
73.0014
20
33.1742
30
0
11
67.9879
21
20.1027
31
0
0
LINE
8
0
6
BYBLOCK
62
0
5
271a
100
AcDbEntity
100
AcDbLine
10
67.9879
20
20.1027
30
0
11
54.9164
21
25.1162
31
0
0
LINE
8
0
6
BYBLOCK
62
0
5
271b
100
AcDbEntity
100
AcDbLine
10
36
20
26.0267
30
0
11
36
21
40.0267
31
0
0
LINE
8
0
6
BYBLOCK
62
0
5
271c
100
AcDbEntity
100
AcDbLine
10
50
20
26.0267
30
0
11
36
21
26.0267
31
0
0
LINE
8
0
6
BYBLOCK
62
0
5
271d
100
AcDbEntity
100
AcDbLine
10
36
20
40.0267
30
0
11
50
21
40.0267
31
0
0
LINE
8
0
6
BYBLOCK
62
0
5
271e
100
AcDbEntity
100
AcDbLine
10
50
20
40.0267
30
0
11
50
21
26.0267
31
0
0
CIRCLE
8
0
6
BYBLOCK
62
0
5
271f
100
AcDbEntity
100
AcDbCircle
10
5
20
10
30
0
40
1.5
0
LINE
8
0
6
BYBLOCK
62
0
5
2720
100
AcDbEntity
100
AcDbLine
10
18.0121
20
20.1027
30
0
11
12.9986
21
33.1742
31
0
0
LINE
8
0
6
BYBLOCK
62
0
5
2721
100
AcDbEntity
100
AcDbLine
10
31.0836
20
25.1162
30
0
11
18.0121
21
20.1027
31
0
0
LINE
8
0
6
BYBLOCK
62
0
5
2722
100
AcDbEntity
100
AcDbLine
10
12.9986
20
33.1742
30
0
11
26.0701
21
38.1877
31
0
0
LINE
8
0
6
BYBLOCK
62
0
5
2723
100
AcDbEntity
100
AcDbLine
10
26.0701
20
38.1877
30
0
11
31.0836
21
25.1162
31
0
0
CIRCLE
8
0
6
BYBLOCK
62
0
5
2724
100
AcDbEntity
100
AcDbCircle
10
5
20
95
30
0
40
1.5
0
CIRCLE
8
0
6
BYBLOCK
62
0
5
2725
100
AcDbEntity
100
AcDbCircle
10
88.6352
20
88.319
30
0
40
2
0
CIRCLE
8
0
6
BYBLOCK
62
0
5
2726
100
AcDbEntity
100
AcDbCircle
10
79.3065
20
66.6574
30
0
40
2
0
CIRCLE
8
0
6
BYBLOCK
62
0
5
2727
100
AcDbEntity
100
AcDbCircle
10
62
20
6
30
0
40
1.5
0
CIRCLE
8
0
6
BYBLOCK
62
0
5
2728
100
AcDbEntity
100
AcDbCircle
10
96
20
98
30
0
40
1.5
0
ENDBLK
5
2729
100
AcDbEntity
8
0
100
AcDbBlockEnd
0
BLOCK
5
272a
100
AcDbEntity
8
0
100
AcDbBlockBegin
2
View0131
70
0
10
0
20
0
3
View0131
1

0
LINE
8
0
6
BYBLOCK
62
0
5
272b
100
AcDbEntity
100
AcDbLine
10
0
20
0
30
0
11
0
21
105
31
0
0
LINE
8
0
6
BYBLOCK
62
0
5
272c
100
AcDbEntity
100
AcDbLine
10
70
20
0
30
0
11
0
21
0
31
0
0
LINE
8
0
6
BYBLOCK
62
0
5
272d
100
AcDbEntity
100
AcDbLine
10
0
20
105
30
0
11
105
21
105
31
0
0
LINE
8
0
6
BYBLOCK
62
0
5
272e
100
AcDbEntity
100
AcDbLine
10
105
20
105
30
0
11
70
21
2.55795e-13
31
0
0
CIRCLE
8
0
6
BYBLOCK
62
0
5
272f
100
AcDbEntity
100
AcDbCircle
10
73.7725
20
43.7309
30
0
40
2
0
LINE
8
0
6
BYBLOCK
62
0
5
2730
100
AcDbEntity
100
AcDbLine
10
59.9299
20
38.1877
30
0
11
73.0014
21
33.1742
31
0
0
LINE
8
0
6
BYBLOCK
62
0
5
2731
100
AcDbEntity
100
AcDbLine
10
54.9164
20
25.1162
30
0
11
59.9299
21
38.1877
31
0
0
LINE
8
0
6
BYBLOCK
62
0
5
2732
100
AcDbEntity
100
AcDbLine
10
73.0014
20
33.1742
30
0
11
67.9879
21
20.1027
31
0
0
LINE
8
0
6
BYBLOCK
62
0
5
2733
100
AcDbEntity
100
AcDbLine
10
67.9879
20
20.1027
30
0
11
54.9164
21
25.1162
31
0
0
LINE
8
0
6
BYBLOCK
62
0
5
2734
100
AcDbEntity
100
AcDbLine
10
36
20
26.0267
30
0
11
36
21
40.0267
31
0
0
LINE
8
0
6
BYBLOCK
62
0
5
2735
100
AcDbEntity
100
AcDbLine
10
50
20
26.0267
30
0
11
36
21
26.0267
31
0
0
LINE
8
0
6
BYBLOCK
62
0
5
2736
100
AcDbEntity
100
AcDbLine
10
36
20
40.0267
30
0
11
50
21
40.0267
31
0
0
LINE
8
0
6
BYBLOCK
62
0
5
2737
100
AcDbEntity
100
AcDbLine
10
50
20
40.0267
30
0
11
50
21
26.0267
31
0
0
CIRCLE
8
0
6
BYBLOCK
62
0
5
2738
100
AcDbEntity
100
AcDbCircle
10
5
20
10
30
0
40
1.5
0
LINE
8
0
6
BYBLOCK
62
0
5
2739
100
AcDbEntity
100
AcDbLine
10
18.0121
20
20.1027
30
0
11
12.9986
21
33.1742
31
0
0
LINE
8
0
6
BYBLOCK
62
0
5
273a
100
AcDbEntity
100
AcDbLine
10
31.0836
20
25.1162
30
0
11
18.0121
21
20.1027
31
0
0
LINE
8
0
6
BYBLOCK
62
0
5
273b
100
AcDbEntity
100
AcDbLine
10
12.9986
20
33.1742
30
0
11
26.0701
21
38.1877
31
0
0
LINE
8
0
6
BYBLOCK
62
0
5
273c
100
AcDbEntity
100
AcDbLine
10
26.0701
20
38.1877
30
0
11
31.0836
21
25.1162
31
0
0
CIRCLE
8
0
6
BYBLOCK
62
0
5
273d
100
AcDbEntity
100
AcDbCircle
10
5
20
95
30
0
40
1.5
0
CIRCLE
8
0
6
BYBLOCK
62
0
5
273e
100
AcDbEntity
100
AcDbCircle
10
88.6352
20
88.319
30
0
40
2
0
CIRCLE
8
0
6
BYBLOCK
62
0
5
273f
100
AcDbEntity
100
AcDbCircle
10
79.3065
20
66.6574
30
0
40
2
0
CIRCLE
8
0
6
BYBLOCK
62
0
5
2740
100
AcDbEntity
100
AcDbCircle
10
62
20
6
30
0
40
1.5
0
CIRCLE
8
0
6
BYBLOCK
62
0
5
2741
100
AcDbEntity
100
AcDbCircle
10
96
20
98
30
0
40
1.5
0
ENDBLK
5
2742
100
AcDbEntity
8
0
100
AcDbBlockEnd
0
ENDSEC
0
SECTION
2
ENTITIES
0
INSERT
5
2743
8
0
6
BYLAYER
62
256
2
View0121
10
5.0
20
-110.0
30
0
41
1.0
42
1.0
43
1.0
50
0.0
0
INSERT
5
2744
8
0
6
BYLAYER
62
256
2
View0131
10
182.0
20
-5.0
30
0
41
1.0
42
1.0
43
1.0
50
-180.0
0
ENDSEC
0
EOF