999
FreeCAD DXF exporter v0.16-6706 (Git)
0
SECTION
2
HEADER
9
$ACADVER
1
AC1009
0
ENDSEC
0
SECTION
2
BLOCKS
0
BLOCK
5
2711
100
AcDbEntity
8
0
100
AcDbBlockBegin
2
View0081
70
0
10
0
20
0
3
View0081
1

0
LINE
8
0
6
BYBLOCK
62
0
5
2712
100
AcDbEntity
100
AcDbLine
10
118
20
104
30
0
11
118
21
20.7346
31
0
0
ARC
8
0
6
BYBLOCK
62
0
5
2713
100
AcDbEntity
100
AcDbCircle
10
112
20
104
30
0
40
6
100
AcDbArc
50
5.97096e-012
51
90
0
LINE
8
0
6
BYBLOCK
62
0
5
2714
100
AcDbEntity
100
AcDbLine
10
118
20
20.7346
30
0
11
84.4616
21
32.0157
31
0
0
LINE
8
0
6
BYBLOCK
62
0
5
2715
100
AcDbEntity
100
AcDbLine
10
107
20
110
30
0
11
112
21
110
31
0
0
LINE
8
0
6
BYBLOCK
62
0
5
2716
100
AcDbEntity
100
AcDbLine
10
84.4616
20
32.0157
30
0
11
104.738
21
92.2973
31
0
0
LINE
8
0
6
BYBLOCK
62
0
5
2717
100
AcDbEntity
100
AcDbLine
10
101.421
20
93.4132
30
0
11
107
21
110
31
0
0
LINE
8
0
6
BYBLOCK
62
0
5
2718
100
AcDbEntity
100
AcDbLine
10
104.738
20
92.2973
30
0
11
101.421
21
93.4132
31
0
0
CIRCLE
8
0
6
BYBLOCK
62
0
5
2719
100
AcDbEntity
100
AcDbCircle
10
110.085
20
81.531
30
0
40
2
0
CIRCLE
8
0
6
BYBLOCK
62
0
5
271a
100
AcDbEntity
100
AcDbCircle
10
95.1006
20
36.9835
30
0
40
2
0
CIRCLE
8
0
6
BYBLOCK
62
0
5
271b
100
AcDbEntity
100
AcDbCircle
10
111.5
20
29
30
0
40
1.5
0
CIRCLE
8
0
6
BYBLOCK
62
0
5
271c
100
AcDbEntity
100
AcDbCircle
10
111.5
20
105
30
0
40
1.5
0
ENDBLK
5
271d
100
AcDbEntity
8
0
100
AcDbBlockEnd
0
BLOCK
5
271e
100
AcDbEntity
8
0
100
AcDbBlockBegin
2
View0091
70
0
10
0
20
0
3
View0091
1

0
LINE
8
0
6
BYBLOCK
62
0
5
271f
100
AcDbEntity
100
AcDbLine
10
112
20
0
30
0
11
70
21
0
31
0
0
ARC
8
0
6
BYBLOCK
62
0
5
2720
100
AcDbEntity
100
AcDbCircle
10
112
20
6
30
0
40
6
100
AcDbArc
50
-90
51
5.93704e-012
0
LINE
8
0
6
BYBLOCK
62
0
5
2721
100
AcDbEntity
100
AcDbLine
10
70
20
0
30
0
11
107
21
110
31
0
0
LINE
8
0
6
BYBLOCK
62
0
5
2722
100
AcDbEntity
100
AcDbLine
10
118
20
104
30
0
11
118
21
6
31
0
0
LINE
8
0
6
BYBLOCK
62
0
5
2723
100
AcDbEntity
100
AcDbLine
10
107
20
110
30
0
11
112
21
110
31
0
0
ARC
8
0
6
BYBLOCK
62
0
5
2724
100
AcDbEntity
100
AcDbCircle
10
112
20
104
30
0
40
6
100
AcDbArc
50
5.97096e-012
51
90
0
CIRCLE
8
0
6
BYBLOCK
62
0
5
2725
100
AcDbEntity
100
AcDbCircle
10
111.5
20
105
30
0
40
1.5
0
CIRCLE
8
0
6
BYBLOCK
62
0
5
2726
100
AcDbEntity
100
AcDbCircle
10
110.085
20
81.531
30
0
40
2
0
CIRCLE
8
0
6
BYBLOCK
62
0
5
2727
100
AcDbEntity
100
AcDbCircle
10
95.1006
20
36.9835
30
0
40
2
0
CIRCLE
8
0
6
BYBLOCK
62
0
5
2728
100
AcDbEntity
100
AcDbCircle
10
88.5
20
5
30
0
40
1.5
0
LINE
8
0
6
BYBLOCK
62
0
5
2729
100
AcDbEntity
100
AcDbLine
10
89.2672
20
12.4634
30
0
11
93.7305
21
25.7328
31
0
0
LINE
8
0
6
BYBLOCK
62
0
5
272a
100
AcDbEntity
100
AcDbLine
10
102.537
20
8
30
0
11
89.2672
21
12.4634
31
0
0
LINE
8
0
6
BYBLOCK
62
0
5
272b
100
AcDbEntity
100
AcDbLine
10
93.7305
20
25.7328
30
0
11
107
21
21.2695
31
0
0
LINE
8
0
6
BYBLOCK
62
0
5
272c
100
AcDbEntity
100
AcDbLine
10
107
20
21.2695
30
0
11
102.537
21
8
31
0
0
CIRCLE
8
0
6
BYBLOCK
62
0
5
272d
100
AcDbEntity
100
AcDbCircle
10
111.5
20
29
30
0
40
1.5
0
CIRCLE
8
0
6
BYBLOCK
62
0
5
272e
100
AcDbEntity
100
AcDbCircle
10
111.5
20
10.5
30
0
40
1.5
0
ENDBLK
5
272f
100
AcDbEntity
8
0
100
AcDbBlockEnd
0
BLOCK
5
2730
100
AcDbEntity
8
0
100
AcDbBlockBegin
2
View0101
70
0
10
0
20
0
3
View0101
1

0
LINE
8
0
6
BYBLOCK
62
0
5
2731
100
AcDbEntity
100
AcDbLine
10
112
20
0
30
0
11
70
21
0
31
0
0
ARC
8
0
6
BYBLOCK
62
0
5
2732
100
AcDbEntity
100
AcDbCircle
10
112
20
6
30
0
40
6
100
AcDbArc
50
-90
51
5.93704e-012
0
LINE
8
0
6
BYBLOCK
62
0
5
2733
100
AcDbEntity
100
AcDbLine
10
70
20
0
30
0
11
107
21
110
31
0
0
LINE
8
0
6
BYBLOCK
62
0
5
2734
100
AcDbEntity
100
AcDbLine
10
118
20
104
30
0
11
118
21
6
31
0
0
LINE
8
0
6
BYBLOCK
62
0
5
2735
100
AcDbEntity
100
AcDbLine
10
107
20
110
30
0
11
112
21
110
31
0
0
ARC
8
0
6
BYBLOCK
62
0
5
2736
100
AcDbEntity
100
AcDbCircle
10
112
20
104
30
0
40
6
100
AcDbArc
50
5.97096e-012
51
90
0
CIRCLE
8
0
6
BYBLOCK
62
0
5
2737
100
AcDbEntity
100
AcDbCircle
10
111.5
20
105
30
0
40
1.5
0
CIRCLE
8
0
6
BYBLOCK
62
0
5
2738
100
AcDbEntity
100
AcDbCircle
10
110.085
20
81.531
30
0
40
2
0
CIRCLE
8
0
6
BYBLOCK
62
0
5
2739
100
AcDbEntity
100
AcDbCircle
10
95.1006
20
36.9835
30
0
40
2
0
CIRCLE
8
0
6
BYBLOCK
62
0
5
273a
100
AcDbEntity
100
AcDbCircle
10
88.5
20
5
30
0
40
1.5
0
LINE
8
0
6
BYBLOCK
62
0
5
273b
100
AcDbEntity
100
AcDbLine
10
89.2672
20
12.4634
30
0
11
93.7305
21
25.7328
31
0
0
LINE
8
0
6
BYBLOCK
62
0
5
273c
100
AcDbEntity
100
AcDbLine
10
102.537
20
8
30
0
11
89.2672
21
12.4634
31
0
0
LINE
8
0
6
BYBLOCK
62
0
5
273d
100
AcDbEntity
100
AcDbLine
10
93.7305
20
25.7328
30
0
11
107
21
21.2695
31
0
0
LINE
8
0
6
BYBLOCK
62
0
5
273e
100
AcDbEntity
100
AcDbLine
10
107
20
21.2695
30
0
11
102.537
21
8
31
0
0
CIRCLE
8
0
6
BYBLOCK
62
0
5
273f
100
AcDbEntity
100
AcDbCircle
10
111.5
20
29
30
0
40
1.5
0
CIRCLE
8
0
6
BYBLOCK
62
0
5
2740
100
AcDbEntity
100
AcDbCircle
10
111.5
20
10.5
30
0
40
1.5
0
ENDBLK
5
2741
100
AcDbEntity
8
0
100
AcDbBlockEnd
0
BLOCK
5
2742
100
AcDbEntity
8
0
100
AcDbBlockBegin
2
View0111
70
0
10
0
20
0
3
View0111
1

0
LINE
8
0
6
BYBLOCK
62
0
5
2743
100
AcDbEntity
100
AcDbLine
10
112
20
0
30
0
11
70
21
0
31
0
0
ARC
8
0
6
BYBLOCK
62
0
5
2744
100
AcDbEntity
100
AcDbCircle
10
112
20
6
30
0
40
6
100
AcDbArc
50
-90
51
5.93704e-012
0
LINE
8
0
6
BYBLOCK
62
0
5
2745
100
AcDbEntity
100
AcDbLine
10
70
20
0
30
0
11
107
21
110
31
0
0
LINE
8
0
6
BYBLOCK
62
0
5
2746
100
AcDbEntity
100
AcDbLine
10
118
20
104
30
0
11
118
21
6
31
0
0
LINE
8
0
6
BYBLOCK
62
0
5
2747
100
AcDbEntity
100
AcDbLine
10
107
20
110
30
0
11
112
21
110
31
0
0
ARC
8
0
6
BYBLOCK
62
0
5
2748
100
AcDbEntity
100
AcDbCircle
10
112
20
104
30
0
40
6
100
AcDbArc
50
5.97096e-012
51
90
0
CIRCLE
8
0
6
BYBLOCK
62
0
5
2749
100
AcDbEntity
100
AcDbCircle
10
111.5
20
105
30
0
40
1.5
0
CIRCLE
8
0
6
BYBLOCK
62
0
5
274a
100
AcDbEntity
100
AcDbCircle
10
110.085
20
81.531
30
0
40
2
0
CIRCLE
8
0
6
BYBLOCK
62
0
5
274b
100
AcDbEntity
100
AcDbCircle
10
95.1006
20
36.9835
30
0
40
2
0
CIRCLE
8
0
6
BYBLOCK
62
0
5
274c
100
AcDbEntity
100
AcDbCircle
10
88.5
20
5
30
0
40
1.5
0
LINE
8
0
6
BYBLOCK
62
0
5
274d
100
AcDbEntity
100
AcDbLine
10
89.2672
20
12.4634
30
0
11
93.7305
21
25.7328
31
0
0
LINE
8
0
6
BYBLOCK
62
0
5
274e
100
AcDbEntity
100
AcDbLine
10
102.537
20
8
30
0
11
89.2672
21
12.4634
31
0
0
LINE
8
0
6
BYBLOCK
62
0
5
274f
100
AcDbEntity
100
AcDbLine
10
93.7305
20
25.7328
30
0
11
107
21
21.2695
31
0
0
LINE
8
0
6
BYBLOCK
62
0
5
2750
100
AcDbEntity
100
AcDbLine
10
107
20
21.2695
30
0
11
102.537
21
8
31
0
0
CIRCLE
8
0
6
BYBLOCK
62
0
5
2751
100
AcDbEntity
100
AcDbCircle
10
111.5
20
29
30
0
40
1.5
0
CIRCLE
8
0
6
BYBLOCK
62
0
5
2752
100
AcDbEntity
100
AcDbCircle
10
111.5
20
10.5
30
0
40
1.5
0
ENDBLK
5
2753
100
AcDbEntity
8
0
100
AcDbBlockEnd
0
ENDSEC
0
SECTION
2
ENTITIES
0
INSERT
5
2754
8
0
6
BYLAYER
62
256
2
View0081
10
100.0
20
55.0
30
0
41
1.0
42
1.0
43
1.0
50
-90.0
0
INSERT
5
2755
8
0
6
BYLAYER
62
256
2
View0091
10
227.0
20
-120.0
30
0
41
1.0
42
1.0
43
1.0
50
90.0
0
INSERT
5
2756
8
0
6
BYLAYER
62
256
2
View0101
10
5.0
20
55.0
30
0
41
1.0
42
1.0
43
1.0
50
-90.0
0
INSERT
5
2757
8
0
6
BYLAYER
62
256
2
View0111
10
115.0
20
-120.0
30
0
41
1.0
42
1.0
43
1.0
50
90.0
0
ENDSEC
0
EOF