999
FreeCAD DXF exporter v0.16-6706 (Git)
0
SECTION
2
HEADER
9
$ACADVER
1
AC1009
0
ENDSEC
0
SECTION
2
BLOCKS
0
BLOCK
5
2711
100
AcDbEntity
8
0
100
AcDbBlockBegin
2
View0131
70
0
10
0
20
0
3
View0131
1

0
LINE
8
0
6
BYBLOCK
62
0
5
2712
100
AcDbEntity
100
AcDbLine
10
0
20
0
30
0
11
0
21
110
31
0
0
LINE
8
0
6
BYBLOCK
62
0
5
2713
100
AcDbEntity
100
AcDbLine
10
70
20
0
30
0
11
0
21
0
31
0
0
LINE
8
0
6
BYBLOCK
62
0
5
2714
100
AcDbEntity
100
AcDbLine
10
0
20
110
30
0
11
107
21
110
31
0
0
LINE
8
0
6
BYBLOCK
62
0
5
2715
100
AcDbEntity
100
AcDbLine
10
81.0169
20
32.7528
30
0
11
70
21
-5.68434e-014
31
0
0
LINE
8
0
6
BYBLOCK
62
0
5
2716
100
AcDbEntity
100
AcDbLine
10
107
20
110
30
0
11
101.421
21
93.4132
31
0
0
LINE
8
0
6
BYBLOCK
62
0
5
2717
100
AcDbEntity
100
AcDbLine
10
77.6995
20
33.8687
30
0
11
81.0169
21
32.7528
31
0
0
LINE
8
0
6
BYBLOCK
62
0
5
2718
100
AcDbEntity
100
AcDbLine
10
101.421
20
93.4132
30
0
11
98.1034
21
94.529
31
0
0
LINE
8
0
6
BYBLOCK
62
0
5
2719
100
AcDbEntity
100
AcDbLine
10
98.1034
20
94.529
30
0
11
77.6995
21
33.8687
31
0
0
LINE
8
0
6
BYBLOCK
62
0
5
271a
100
AcDbEntity
100
AcDbLine
10
59.9299
20
38.1877
30
0
11
73.0014
21
33.1742
31
0
0
LINE
8
0
6
BYBLOCK
62
0
5
271b
100
AcDbEntity
100
AcDbLine
10
54.9164
20
25.1162
30
0
11
59.9299
21
38.1877
31
0
0
LINE
8
0
6
BYBLOCK
62
0
5
271c
100
AcDbEntity
100
AcDbLine
10
73.0014
20
33.1742
30
0
11
67.9879
21
20.1027
31
0
0
LINE
8
0
6
BYBLOCK
62
0
5
271d
100
AcDbEntity
100
AcDbLine
10
67.9879
20
20.1027
30
0
11
54.9164
21
25.1162
31
0
0
LINE
8
0
6
BYBLOCK
62
0
5
271e
100
AcDbEntity
100
AcDbLine
10
50
20
26.0267
30
0
11
36
21
26.0267
31
0
0
LINE
8
0
6
BYBLOCK
62
0
5
271f
100
AcDbEntity
100
AcDbLine
10
50
20
40.0267
30
0
11
50
21
26.0267
31
0
0
LINE
8
0
6
BYBLOCK
62
0
5
2720
100
AcDbEntity
100
AcDbLine
10
36
20
26.0267
30
0
11
36
21
40.0267
31
0
0
LINE
8
0
6
BYBLOCK
62
0
5
2721
100
AcDbEntity
100
AcDbLine
10
36
20
40.0267
30
0
11
50
21
40.0267
31
0
0
CIRCLE
8
0
6
BYBLOCK
62
0
5
2722
100
AcDbEntity
100
AcDbCircle
10
5
20
10
30
0
40
1.5
0
LINE
8
0
6
BYBLOCK
62
0
5
2723
100
AcDbEntity
100
AcDbLine
10
18.0121
20
20.1027
30
0
11
12.9986
21
33.1742
31
0
0
LINE
8
0
6
BYBLOCK
62
0
5
2724
100
AcDbEntity
100
AcDbLine
10
31.0836
20
25.1162
30
0
11
18.0121
21
20.1027
31
0
0
LINE
8
0
6
BYBLOCK
62
0
5
2725
100
AcDbEntity
100
AcDbLine
10
12.9986
20
33.1742
30
0
11
26.0701
21
38.1877
31
0
0
LINE
8
0
6
BYBLOCK
62
0
5
2726
100
AcDbEntity
100
AcDbLine
10
26.0701
20
38.1877
30
0
11
31.0836
21
25.1162
31
0
0
CIRCLE
8
0
6
BYBLOCK
62
0
5
2727
100
AcDbEntity
100
AcDbCircle
10
72.3529
20
44.635
30
0
40
2
0
CIRCLE
8
0
6
BYBLOCK
62
0
5
2728
100
AcDbEntity
100
AcDbCircle
10
5
20
100
30
0
40
1.5
0
CIRCLE
8
0
6
BYBLOCK
62
0
5
2729
100
AcDbEntity
100
AcDbCircle
10
87.3371
20
89.1825
30
0
40
2
0
CIRCLE
8
0
6
BYBLOCK
62
0
5
272a
100
AcDbEntity
100
AcDbCircle
10
77.9494
20
67.5464
30
0
40
2
0
CIRCLE
8
0
6
BYBLOCK
62
0
5
272b
100
AcDbEntity
100
AcDbCircle
10
62
20
5
30
0
40
1.5
0
CIRCLE
8
0
6
BYBLOCK
62
0
5
272c
100
AcDbEntity
100
AcDbCircle
10
98
20
103
30
0
40
1.5
0
ENDBLK
5
272d
100
AcDbEntity
8
0
100
AcDbBlockEnd
0
BLOCK
5
272e
100
AcDbEntity
8
0
100
AcDbBlockBegin
2
View0141
70
0
10
0
20
0
3
View0141
1

0
LINE
8
0
6
BYBLOCK
62
0
5
272f
100
AcDbEntity
100
AcDbLine
10
0
20
0
30
0
11
0
21
110
31
0
0
LINE
8
0
6
BYBLOCK
62
0
5
2730
100
AcDbEntity
100
AcDbLine
10
70
20
0
30
0
11
0
21
0
31
0
0
LINE
8
0
6
BYBLOCK
62
0
5
2731
100
AcDbEntity
100
AcDbLine
10
0
20
110
30
0
11
107
21
110
31
0
0
LINE
8
0
6
BYBLOCK
62
0
5
2732
100
AcDbEntity
100
AcDbLine
10
73.2857
20
9.76832
30
0
11
70
21
-5.68434e-014
31
0
0
LINE
8
0
6
BYBLOCK
62
0
5
2733
100
AcDbEntity
100
AcDbLine
10
107
20
110
30
0
11
76.6332
21
19.7204
31
0
0
LINE
8
0
6
BYBLOCK
62
0
5
2734
100
AcDbEntity
100
AcDbLine
10
73.2857
20
9.76832
30
0
11
66.651
21
12
31
0
0
LINE
8
0
6
BYBLOCK
62
0
5
2735
100
AcDbEntity
100
AcDbLine
10
69.9985
20
21.9521
30
0
11
76.6332
21
19.7204
31
0
0
LINE
8
0
6
BYBLOCK
62
0
5
2736
100
AcDbEntity
100
AcDbLine
10
66.651
20
12
30
0
11
12
21
12
31
0
0
LINE
8
0
6
BYBLOCK
62
0
5
2737
100
AcDbEntity
100
AcDbLine
10
74.4619
20
35.2215
30
0
11
69.9985
21
21.9521
31
0
0
LINE
8
0
6
BYBLOCK
62
0
5
2738
100
AcDbEntity
100
AcDbLine
10
12
20
42
30
0
11
12
21
12
31
0
0
LINE
8
0
6
BYBLOCK
62
0
5
2739
100
AcDbEntity
100
AcDbLine
10
57
20
42
30
0
11
74.4619
21
35.2215
31
0
0
LINE
8
0
6
BYBLOCK
62
0
5
273a
100
AcDbEntity
100
AcDbLine
10
12
20
42
30
0
11
57
21
42
31
0
0
CIRCLE
8
0
6
BYBLOCK
62
0
5
273b
100
AcDbEntity
100
AcDbCircle
10
98
20
103
30
0
40
1.5
0
CIRCLE
8
0
6
BYBLOCK
62
0
5
273c
100
AcDbEntity
100
AcDbCircle
10
87.3371
20
89.1825
30
0
40
2
0
CIRCLE
8
0
6
BYBLOCK
62
0
5
273d
100
AcDbEntity
100
AcDbCircle
10
72.3529
20
44.635
30
0
40
2
0
CIRCLE
8
0
6
BYBLOCK
62
0
5
273e
100
AcDbEntity
100
AcDbCircle
10
77.9494
20
67.5464
30
0
40
2
0
CIRCLE
8
0
6
BYBLOCK
62
0
5
273f
100
AcDbEntity
100
AcDbCircle
10
5
20
100
30
0
40
1.5
0
CIRCLE
8
0
6
BYBLOCK
62
0
5
2740
100
AcDbEntity
100
AcDbCircle
10
5
20
10
30
0
40
1.5
0
CIRCLE
8
0
6
BYBLOCK
62
0
5
2741
100
AcDbEntity
100
AcDbCircle
10
62
20
5
30
0
40
1.5
0
ENDBLK
5
2742
100
AcDbEntity
8
0
100
AcDbBlockEnd
0
ENDSEC
0
SECTION
2
ENTITIES
0
INSERT
5
2743
8
0
6
BYLAYER
62
256
2
View0131
10
5.0
20
-115.0
30
0
41
1.0
42
1.0
43
1.0
50
0.0
0
INSERT
5
2744
8
0
6
BYLAYER
62
256
2
View0141
10
184.0
20
-5.0
30
0
41
1.0
42
1.0
43
1.0
50
-180.0
0
ENDSEC
0
EOF