999
FreeCAD DXF exporter v0.16-Unknown
0
SECTION
2
HEADER
9
$ACADVER
1
AC1009
0
ENDSEC
0
SECTION
2
BLOCKS
0
BLOCK
5
2711
100
AcDbEntity
8
0
100
AcDbBlockBegin
2
View1
70
0
10
0
20
0
3
View1
1

0
LINE
8
0
6
BYBLOCK
62
0
5
2712
100
AcDbEntity
100
AcDbLine
10
0
20
34
30
0
11
112
21
34
31
0
0
LINE
8
0
6
BYBLOCK
62
0
5
2713
100
AcDbEntity
100
AcDbLine
10
0
20
0
30
0
11
0
21
34
31
0
0
LINE
8
0
6
BYBLOCK
62
0
5
2714
100
AcDbEntity
100
AcDbLine
10
112
20
34
30
0
11
112
21
0
31
0
0
LINE
8
0
6
BYBLOCK
62
0
5
2715
100
AcDbEntity
100
AcDbLine
10
112
20
0
30
0
11
0
21
0
31
0
0
LINE
8
0
6
BYBLOCK
62
0
5
2716
100
AcDbEntity
100
AcDbLine
10
29.5
20
24
30
0
11
43.5
21
24
31
0
0
LINE
8
0
6
BYBLOCK
62
0
5
2717
100
AcDbEntity
100
AcDbLine
10
29.5
20
23
30
0
11
29.5
21
24
31
0
0
LINE
8
0
6
BYBLOCK
62
0
5
2718
100
AcDbEntity
100
AcDbLine
10
43.5
20
24
30
0
11
43.5
21
23
31
0
0
LINE
8
0
6
BYBLOCK
62
0
5
2719
100
AcDbEntity
100
AcDbLine
10
28.5
20
23
30
0
11
29.5
21
23
31
0
0
LINE
8
0
6
BYBLOCK
62
0
5
271a
100
AcDbEntity
100
AcDbLine
10
43.5
20
23
30
0
11
44.5
21
23
31
0
0
LINE
8
0
6
BYBLOCK
62
0
5
271b
100
AcDbEntity
100
AcDbLine
10
28.5
20
19.5
30
0
11
28.5
21
23
31
0
0
LINE
8
0
6
BYBLOCK
62
0
5
271c
100
AcDbEntity
100
AcDbLine
10
44.5
20
23
30
0
11
44.5
21
19.5
31
0
0
LINE
8
0
6
BYBLOCK
62
0
5
271d
100
AcDbEntity
100
AcDbLine
10
29.5
20
19.5
30
0
11
28.5
21
19.5
31
0
0
LINE
8
0
6
BYBLOCK
62
0
5
271e
100
AcDbEntity
100
AcDbLine
10
44.5
20
19.5
30
0
11
43.5
21
19.5
31
0
0
LINE
8
0
6
BYBLOCK
62
0
5
271f
100
AcDbEntity
100
AcDbLine
10
29.5
20
14.5
30
0
11
29.5
21
19.5
31
0
0
LINE
8
0
6
BYBLOCK
62
0
5
2720
100
AcDbEntity
100
AcDbLine
10
43.5
20
19.5
30
0
11
43.5
21
14.5
31
0
0
LINE
8
0
6
BYBLOCK
62
0
5
2721
100
AcDbEntity
100
AcDbLine
10
28.5
20
14.5
30
0
11
29.5
21
14.5
31
0
0
LINE
8
0
6
BYBLOCK
62
0
5
2722
100
AcDbEntity
100
AcDbLine
10
43.5
20
14.5
30
0
11
44.5
21
14.5
31
0
0
LINE
8
0
6
BYBLOCK
62
0
5
2723
100
AcDbEntity
100
AcDbLine
10
28.5
20
11
30
0
11
28.5
21
14.5
31
0
0
LINE
8
0
6
BYBLOCK
62
0
5
2724
100
AcDbEntity
100
AcDbLine
10
44.5
20
14.5
30
0
11
44.5
21
11
31
0
0
LINE
8
0
6
BYBLOCK
62
0
5
2725
100
AcDbEntity
100
AcDbLine
10
29.5
20
11
30
0
11
28.5
21
11
31
0
0
LINE
8
0
6
BYBLOCK
62
0
5
2726
100
AcDbEntity
100
AcDbLine
10
44.5
20
11
30
0
11
43.5
21
11
31
0
0
LINE
8
0
6
BYBLOCK
62
0
5
2727
100
AcDbEntity
100
AcDbLine
10
29.5
20
10
30
0
11
29.5
21
11
31
0
0
LINE
8
0
6
BYBLOCK
62
0
5
2728
100
AcDbEntity
100
AcDbLine
10
43.5
20
11
30
0
11
43.5
21
10
31
0
0
LINE
8
0
6
BYBLOCK
62
0
5
2729
100
AcDbEntity
100
AcDbLine
10
43.5
20
10
30
0
11
29.5
21
10
31
0
0
LINE
8
0
6
BYBLOCK
62
0
5
272a
100
AcDbEntity
100
AcDbLine
10
63
20
10
30
0
11
63
21
9
31
0
0
LINE
8
0
6
BYBLOCK
62
0
5
272b
100
AcDbEntity
100
AcDbLine
10
64
20
10
30
0
11
63
21
10
31
0
0
LINE
8
0
6
BYBLOCK
62
0
5
272c
100
AcDbEntity
100
AcDbLine
10
63
20
9
30
0
11
49
21
9
31
0
0
LINE
8
0
6
BYBLOCK
62
0
5
272d
100
AcDbEntity
100
AcDbLine
10
64
20
24
30
0
11
64
21
10
31
0
0
LINE
8
0
6
BYBLOCK
62
0
5
272e
100
AcDbEntity
100
AcDbLine
10
49
20
9
30
0
11
49
21
10
31
0
0
LINE
8
0
6
BYBLOCK
62
0
5
272f
100
AcDbEntity
100
AcDbLine
10
63
20
24
30
0
11
64
21
24
31
0
0
LINE
8
0
6
BYBLOCK
62
0
5
2730
100
AcDbEntity
100
AcDbLine
10
49
20
10
30
0
11
48
21
10
31
0
0
LINE
8
0
6
BYBLOCK
62
0
5
2731
100
AcDbEntity
100
AcDbLine
10
63
20
25
30
0
11
63
21
24
31
0
0
LINE
8
0
6
BYBLOCK
62
0
5
2732
100
AcDbEntity
100
AcDbLine
10
48
20
10
30
0
11
48
21
24
31
0
0
LINE
8
0
6
BYBLOCK
62
0
5
2733
100
AcDbEntity
100
AcDbLine
10
49
20
25
30
0
11
63
21
25
31
0
0
LINE
8
0
6
BYBLOCK
62
0
5
2734
100
AcDbEntity
100
AcDbLine
10
48
20
24
30
0
11
49
21
24
31
0
0
LINE
8
0
6
BYBLOCK
62
0
5
2735
100
AcDbEntity
100
AcDbLine
10
49
20
24
30
0
11
49
21
25
31
0
0
CIRCLE
8
0
6
BYBLOCK
62
0
5
2736
100
AcDbEntity
100
AcDbCircle
10
107.5
20
29.5
30
0
40
1.5
0
LINE
8
0
6
BYBLOCK
62
0
5
2737
100
AcDbEntity
100
AcDbLine
10
101.5
20
24
30
0
11
101.5
21
10
31
0
0
LINE
8
0
6
BYBLOCK
62
0
5
2738
100
AcDbEntity
100
AcDbLine
10
87.5
20
24
30
0
11
101.5
21
24
31
0
0
LINE
8
0
6
BYBLOCK
62
0
5
2739
100
AcDbEntity
100
AcDbLine
10
101.5
20
10
30
0
11
87.5
21
10
31
0
0
LINE
8
0
6
BYBLOCK
62
0
5
273a
100
AcDbEntity
100
AcDbLine
10
87.5
20
10
30
0
11
87.5
21
24
31
0
0
LINE
8
0
6
BYBLOCK
62
0
5
273b
100
AcDbEntity
100
AcDbLine
10
82.5
20
10
30
0
11
68.5
21
10
31
0
0
LINE
8
0
6
BYBLOCK
62
0
5
273c
100
AcDbEntity
100
AcDbLine
10
82.5
20
24
30
0
11
82.5
21
10
31
0
0
LINE
8
0
6
BYBLOCK
62
0
5
273d
100
AcDbEntity
100
AcDbLine
10
68.5
20
10
30
0
11
68.5
21
24
31
0
0
LINE
8
0
6
BYBLOCK
62
0
5
273e
100
AcDbEntity
100
AcDbLine
10
68.5
20
24
30
0
11
82.5
21
24
31
0
0
CIRCLE
8
0
6
BYBLOCK
62
0
5
273f
100
AcDbEntity
100
AcDbCircle
10
107.5
20
5.5
30
0
40
1.5
0
CIRCLE
8
0
6
BYBLOCK
62
0
5
2740
100
AcDbEntity
100
AcDbCircle
10
4.5
20
5.5
30
0
40
1.5
0
CIRCLE
8
0
6
BYBLOCK
62
0
5
2741
100
AcDbEntity
100
AcDbCircle
10
4.5
20
29.5
30
0
40
1.5
0
LINE
8
0
6
BYBLOCK
62
0
5
2742
100
AcDbEntity
100
AcDbLine
10
24
20
11
30
0
11
24
21
10
31
0
0
LINE
8
0
6
BYBLOCK
62
0
5
2743
100
AcDbEntity
100
AcDbLine
10
25
20
11
30
0
11
24
21
11
31
0
0
LINE
8
0
6
BYBLOCK
62
0
5
2744
100
AcDbEntity
100
AcDbLine
10
24
20
10
30
0
11
10
21
10
31
0
0
LINE
8
0
6
BYBLOCK
62
0
5
2745
100
AcDbEntity
100
AcDbLine
10
25
20
14.5
30
0
11
25
21
11
31
0
0
LINE
8
0
6
BYBLOCK
62
0
5
2746
100
AcDbEntity
100
AcDbLine
10
10
20
10
30
0
11
10
21
11
31
0
0
LINE
8
0
6
BYBLOCK
62
0
5
2747
100
AcDbEntity
100
AcDbLine
10
24
20
14.5
30
0
11
25
21
14.5
31
0
0
LINE
8
0
6
BYBLOCK
62
0
5
2748
100
AcDbEntity
100
AcDbLine
10
10
20
11
30
0
11
9
21
11
31
0
0
LINE
8
0
6
BYBLOCK
62
0
5
2749
100
AcDbEntity
100
AcDbLine
10
24
20
19.5
30
0
11
24
21
14.5
31
0
0
LINE
8
0
6
BYBLOCK
62
0
5
274a
100
AcDbEntity
100
AcDbLine
10
9
20
11
30
0
11
9
21
14.5
31
0
0
LINE
8
0
6
BYBLOCK
62
0
5
274b
100
AcDbEntity
100
AcDbLine
10
25
20
19.5
30
0
11
24
21
19.5
31
0
0
LINE
8
0
6
BYBLOCK
62
0
5
274c
100
AcDbEntity
100
AcDbLine
10
9
20
14.5
30
0
11
10
21
14.5
31
0
0
LINE
8
0
6
BYBLOCK
62
0
5
274d
100
AcDbEntity
100
AcDbLine
10
25
20
23
30
0
11
25
21
19.5
31
0
0
LINE
8
0
6
BYBLOCK
62
0
5
274e
100
AcDbEntity
100
AcDbLine
10
10
20
14.5
30
0
11
10
21
19.5
31
0
0
LINE
8
0
6
BYBLOCK
62
0
5
274f
100
AcDbEntity
100
AcDbLine
10
24
20
23
30
0
11
25
21
23
31
0
0
LINE
8
0
6
BYBLOCK
62
0
5
2750
100
AcDbEntity
100
AcDbLine
10
10
20
19.5
30
0
11
9
21
19.5
31
0
0
LINE
8
0
6
BYBLOCK
62
0
5
2751
100
AcDbEntity
100
AcDbLine
10
24
20
24
30
0
11
24
21
23
31
0
0
LINE
8
0
6
BYBLOCK
62
0
5
2752
100
AcDbEntity
100
AcDbLine
10
9
20
19.5
30
0
11
9
21
23
31
0
0
LINE
8
0
6
BYBLOCK
62
0
5
2753
100
AcDbEntity
100
AcDbLine
10
10
20
24
30
0
11
24
21
24
31
0
0
LINE
8
0
6
BYBLOCK
62
0
5
2754
100
AcDbEntity
100
AcDbLine
10
9
20
23
30
0
11
10
21
23
31
0
0
LINE
8
0
6
BYBLOCK
62
0
5
2755
100
AcDbEntity
100
AcDbLine
10
10
20
23
30
0
11
10
21
24
31
0
0
ENDBLK
5
2756
100
AcDbEntity
8
0
100
AcDbBlockEnd
0
BLOCK
5
2757
100
AcDbEntity
8
0
100
AcDbBlockBegin
2
View0011
70
0
10
0
20
0
3
View0011
1

0
LINE
8
0
6
BYBLOCK
62
0
5
2758
100
AcDbEntity
100
AcDbLine
10
0
20
34
30
0
11
112
21
34
31
0
0
LINE
8
0
6
BYBLOCK
62
0
5
2759
100
AcDbEntity
100
AcDbLine
10
0
20
0
30
0
11
0
21
34
31
0
0
LINE
8
0
6
BYBLOCK
62
0
5
275a
100
AcDbEntity
100
AcDbLine
10
112
20
34
30
0
11
112
21
0
31
0
0
LINE
8
0
6
BYBLOCK
62
0
5
275b
100
AcDbEntity
100
AcDbLine
10
112
20
0
30
0
11
0
21
0
31
0
0
CIRCLE
8
0
6
BYBLOCK
62
0
5
275c
100
AcDbEntity
100
AcDbCircle
10
4.5
20
29.5
30
0
40
1.5
0
CIRCLE
8
0
6
BYBLOCK
62
0
5
275d
100
AcDbEntity
100
AcDbCircle
10
4.5
20
5.5
30
0
40
1.5
0
LINE
8
0
6
BYBLOCK
62
0
5
275e
100
AcDbEntity
100
AcDbLine
10
9
20
25
30
0
11
103
21
25
31
0
0
LINE
8
0
6
BYBLOCK
62
0
5
275f
100
AcDbEntity
100
AcDbLine
10
9
20
9
30
0
11
9
21
25
31
0
0
LINE
8
0
6
BYBLOCK
62
0
5
2760
100
AcDbEntity
100
AcDbLine
10
103
20
25
30
0
11
103
21
9
31
0
0
LINE
8
0
6
BYBLOCK
62
0
5
2761
100
AcDbEntity
100
AcDbLine
10
103
20
9
30
0
11
9
21
9
31
0
0
CIRCLE
8
0
6
BYBLOCK
62
0
5
2762
100
AcDbEntity
100
AcDbCircle
10
107.5
20
5.5
30
0
40
1.5
0
CIRCLE
8
0
6
BYBLOCK
62
0
5
2763
100
AcDbEntity
100
AcDbCircle
10
107.5
20
29.5
30
0
40
1.5
0
ENDBLK
5
2764
100
AcDbEntity
8
0
100
AcDbBlockEnd
0
BLOCK
5
2765
100
AcDbEntity
8
0
100
AcDbBlockBegin
2
View0021
70
0
10
0
20
0
3
View0021
1

0
LINE
8
0
6
BYBLOCK
62
0
5
2766
100
AcDbEntity
100
AcDbLine
10
0
20
34
30
0
11
112
21
34
31
0
0
LINE
8
0
6
BYBLOCK
62
0
5
2767
100
AcDbEntity
100
AcDbLine
10
0
20
0
30
0
11
0
21
34
31
0
0
LINE
8
0
6
BYBLOCK
62
0
5
2768
100
AcDbEntity
100
AcDbLine
10
112
20
34
30
0
11
112
21
0
31
0
0
LINE
8
0
6
BYBLOCK
62
0
5
2769
100
AcDbEntity
100
AcDbLine
10
112
20
0
30
0
11
0
21
0
31
0
0
CIRCLE
8
0
6
BYBLOCK
62
0
5
276a
100
AcDbEntity
100
AcDbCircle
10
107.5
20
29.5
30
0
40
1.5
0
CIRCLE
8
0
6
BYBLOCK
62
0
5
276b
100
AcDbEntity
100
AcDbCircle
10
4.5
20
29.5
30
0
40
1.5
0
CIRCLE
8
0
6
BYBLOCK
62
0
5
276c
100
AcDbEntity
100
AcDbCircle
10
107.5
20
5.5
30
0
40
1.5
0
CIRCLE
8
0
6
BYBLOCK
62
0
5
276d
100
AcDbEntity
100
AcDbCircle
10
4.5
20
5.5
30
0
40
1.5
0
ENDBLK
5
276e
100
AcDbEntity
8
0
100
AcDbBlockEnd
0
ENDSEC
0
SECTION
2
ENTITIES
0
INSERT
5
276f
8
0
6
BYLAYER
62
256
2
View1
10
5.0
20
-5.0
30
0
41
1.0
42
1.0
43
1.0
50
-90.0
0
INSERT
5
2770
8
0
6
BYLAYER
62
256
2
View0011
10
45.0
20
-5.0
30
0
41
1.0
42
1.0
43
1.0
50
-90.0
0
INSERT
5
2771
8
0
6
BYLAYER
62
256
2
View0021
10
85.0
20
-5.0
30
0
41
1.0
42
1.0
43
1.0
50
-90.0
0
ENDSEC
0
EOF